<svg width="380" height="411" xmlns="http://www.w3.org/2000/svg" xmlns:xlink="http://www.w3.org/1999/xlink" xml:space="preserve" overflow="hidden"><defs><clipPath id="clip0"><rect x="115" y="36" width="380" height="411"/></clipPath><linearGradient x1="182.466" y1="1359.84" x2="182.466" y2="-2205.89" gradientUnits="userSpaceOnUse" spreadMethod="pad" id="fill1"><stop offset="0" stop-color="#87B7E2"/><stop offset="1" stop-color="#FBFDFF"/></linearGradient></defs><g clip-path="url(#clip0)" transform="translate(-115 -36)"><path d="M530.658 303.438 530.658 303.438C529.705 307.672 528.776 312.169 527.873 316.931 525.113 317.087 522.37 317.448 519.663 318.011 515.947 318.78 512.173 319.244 508.382 319.404 502.88 319.524 497.427 318.295 492.509 315.825 488.045 313.522 484.346 309.968 481.866 305.6 479.304 301.096 477.989 295.998 478.053 290.818 478.018 285.613 479.41 280.493 482.089 276.025 484.732 271.551 488.569 267.901 493.172 265.485 498.079 262.923 503.549 261.626 509.084 261.715 512.432 261.779 515.773 262.044 519.089 262.505 521.446 262.856 523.816 263.068 526.193 263.146 526.534 266.849 527.139 271.345 528.015 276.638 528.015 277.067 527.6 277.273 526.714 277.273 526.282 277.333 525.875 277.06 525.765 276.638 524.819 273.046 522.64 269.899 519.61 267.749 516.468 265.421 512.645 264.192 508.733 264.252 502.611 264.223 496.828 267.076 493.122 271.954 488.828 277.28 486.581 283.966 486.783 290.807 486.606 297.504 488.831 304.044 493.055 309.242 496.686 314.05 502.37 316.874 508.396 316.867 517.842 316.867 524.539 312.395 528.486 303.453 528.667 303.027 529.106 302.772 529.563 302.815 530.307 302.815 530.682 303.024 530.682 303.453L530.658 303.438ZM599.252 317.023 599.252 317.023C599.252 317.763 599.029 318.142 598.614 318.142 596.818 318.142 594.71 318.064 592.226 317.909 589.739 317.753 587.932 317.675 586.306 317.675 584.679 317.675 582.819 317.753 580.711 317.909 578.603 318.064 576.495 318.142 574.713 318.142 574.287 318.142 574.075 317.77 574.075 317.023 574.075 316.36 574.295 316.009 574.752 315.956 576.445 315.807 578.11 315.443 579.708 314.861 580.622 314.557 581.381 313.894 581.802 313.03 582.174 311.8 582.327 310.521 582.259 309.242L582.259 291.548 551.984 291.548 551.984 309.256C551.916 310.535 552.076 311.814 552.451 313.04 552.866 313.905 553.61 314.567 554.521 314.876 556.133 315.46 557.819 315.825 559.527 315.97 559.945 315.97 560.165 316.385 560.165 317.037 560.165 317.685 559.959 318.157 559.527 318.157 557.745 318.157 555.757 318.079 553.532 317.919 551.307 317.763 549.55 317.685 547.934 317.685 546.322 317.685 544.331 317.763 541.978 317.919 539.622 318.079 537.397 318.157 535.629 318.157 535.211 318.157 534.991 317.777 534.991 317.037 534.991 316.293 535.196 316.02 535.629 315.97 537.9 315.864 540.125 315.255 542.13 314.188 543.292 313.366 543.849 311.729 543.849 309.256L543.849 271.862C543.955 270.523 543.718 269.18 543.161 267.958 542.566 267.107 541.705 266.477 540.713 266.161 539.055 265.619 537.34 265.265 535.6 265.109 535.186 265.109 534.963 264.744 534.963 264.004 534.963 263.26 535.172 262.909 535.6 262.909 537.336 262.909 539.452 262.987 541.95 263.146 544.306 263.299 546.297 263.38 547.909 263.38 549.521 263.38 551.395 263.299 553.504 263.146 555.612 262.987 557.72 262.909 559.502 262.909 559.92 262.909 560.14 263.288 560.14 264.004 560.14 264.719 559.931 265.109 559.502 265.109 557.911 265.247 556.338 265.566 554.818 266.059 553.929 266.349 553.16 266.927 552.632 267.699 552.09 269.021 551.87 270.452 551.994 271.873L551.994 288.997 582.284 288.997 582.284 271.862C582.352 270.573 582.196 269.286 581.827 268.05 581.416 267.182 580.669 266.523 579.762 266.215 578.142 265.623 576.456 265.251 574.737 265.109 574.312 265.109 574.1 264.741 574.1 264.004 574.1 263.274 574.309 262.909 574.737 262.909 576.474 262.909 578.468 262.987 580.722 263.146 582.979 263.299 584.842 263.38 586.316 263.38 587.932 263.38 589.905 263.299 592.237 263.146 594.696 262.987 596.832 262.909 598.625 262.909 599.057 262.909 599.263 263.288 599.263 264.004 599.263 264.719 599.043 265.109 598.625 265.109 596.889 265.269 595.174 265.623 593.512 266.161 592.524 266.473 591.67 267.107 591.082 267.958 590.518 269.18 590.274 270.523 590.377 271.862L590.377 309.231C590.377 311.69 590.961 313.327 592.106 314.16 594.115 315.233 596.34 315.843 598.614 315.942 599.043 315.942 599.252 316.36 599.252 317.009L599.252 317.023ZM631.923 317.023 631.923 317.023C631.923 317.763 631.714 318.142 631.285 318.142 629.549 318.142 627.445 318.064 624.972 317.909 622.502 317.753 620.529 317.675 619.055 317.675 617.439 317.675 615.465 317.753 613.134 317.909 610.668 318.064 608.542 318.142 606.746 318.142 606.317 318.142 606.108 317.763 606.108 317.023 606.108 316.282 606.328 316.009 606.746 315.956 609.021 315.854 611.242 315.244 613.251 314.174 614.41 313.356 614.969 311.715 614.969 309.242L614.969 271.862C615.072 270.523 614.835 269.18 614.279 267.958 613.683 267.107 612.826 266.473 611.834 266.161 610.172 265.619 608.457 265.265 606.717 265.109 606.289 265.109 606.083 264.744 606.083 264.004 606.083 263.26 606.303 262.909 606.717 262.909 608.514 262.909 610.643 262.987 613.106 263.146 615.434 263.299 617.404 263.38 619.026 263.38 620.649 263.38 622.622 263.299 624.947 263.146 627.377 262.98 629.478 262.902 631.257 262.909 631.686 262.909 631.895 263.288 631.895 264.004 631.895 264.719 631.686 265.109 631.257 265.109 629.531 265.272 627.831 265.623 626.183 266.161 625.202 266.463 624.348 267.09 623.763 267.933 623.218 269.155 622.984 270.498 623.087 271.834L623.087 309.203C622.98 310.542 623.214 311.882 623.763 313.108 624.341 313.958 625.188 314.589 626.173 314.89 627.806 315.439 629.5 315.797 631.218 315.956 631.675 315.956 631.895 316.371 631.895 317.023L631.923 317.023ZM703.09 317.023 703.09 317.023C703.09 317.763 702.884 318.142 702.452 318.142 700.659 318.142 698.53 318.064 696.068 317.909 693.736 317.753 691.773 317.675 690.158 317.675 688.545 317.675 686.671 317.753 684.563 317.909 682.455 318.064 680.336 318.142 678.565 318.142 678.15 318.142 677.927 317.763 677.927 317.023 677.927 316.282 678.15 316.009 678.604 315.956 680.301 315.811 681.973 315.443 683.574 314.861 684.485 314.553 685.236 313.894 685.658 313.03 686.026 311.8 686.179 310.521 686.111 309.242L686.111 291.548 655.821 291.548 655.821 309.256C655.754 310.535 655.913 311.818 656.293 313.04 656.707 313.908 657.451 314.567 658.358 314.876 659.974 315.46 661.657 315.825 663.368 315.97 663.797 315.97 664.006 316.385 664.006 317.037 664.006 317.685 663.797 318.157 663.368 318.157 661.636 318.157 659.634 318.079 657.37 317.919 655.106 317.763 653.242 317.685 651.775 317.685 650.163 317.685 648.172 317.763 645.816 317.919 643.463 318.079 641.238 318.157 639.466 318.157 639.038 318.157 638.832 317.777 638.832 317.037 638.832 316.293 639.052 316.02 639.466 315.97 641.741 315.868 643.963 315.258 645.971 314.188 647.13 313.366 647.69 311.729 647.69 309.256L647.69 271.862C647.796 270.523 647.559 269.18 647.003 267.958 646.407 267.107 645.546 266.473 644.554 266.161 642.893 265.619 641.171 265.265 639.431 265.109 638.999 265.109 638.79 264.744 638.79 264.004 638.79 263.26 639.013 262.909 639.431 262.909 641.164 262.909 643.279 262.987 645.777 263.146 648.133 263.299 650.124 263.38 651.736 263.38 653.352 263.38 655.223 263.299 657.331 263.146 659.439 262.987 661.547 262.909 663.329 262.909 663.758 262.909 663.967 263.288 663.967 264.004 663.967 264.719 663.758 265.109 663.329 265.109 661.738 265.247 660.165 265.563 658.645 266.059 657.749 266.339 656.966 266.906 656.42 267.671 655.878 268.992 655.662 270.427 655.782 271.848L655.782 288.972 686.072 288.972 686.072 271.862C686.14 270.573 685.984 269.286 685.619 268.05 685.204 267.182 684.457 266.523 683.55 266.215 681.93 265.623 680.244 265.251 678.526 265.109 678.111 265.109 677.898 264.741 677.888 264.004 677.888 263.274 678.097 262.909 678.526 262.909 680.262 262.909 682.26 262.987 684.524 263.146 686.788 263.299 688.652 263.38 690.119 263.38 691.734 263.38 693.697 263.299 696.039 263.146 698.381 262.987 700.631 262.909 702.427 262.909 702.845 262.909 703.065 263.288 703.065 264.004 703.065 264.719 702.856 265.109 702.427 265.109 700.691 265.269 698.973 265.623 697.315 266.161 696.326 266.473 695.472 267.107 694.88 267.958 694.321 269.18 694.08 270.523 694.179 271.862L694.179 309.231C694.179 311.69 694.764 313.327 695.908 314.16 697.917 315.233 700.138 315.843 702.417 315.942 702.845 315.942 703.051 316.36 703.051 317.009L703.09 317.023ZM766.441 264.053 766.441 264.053C766.441 264.797 766.221 265.162 765.806 265.162 762.472 265.591 760.237 266.215 759.092 267.008 757.944 267.802 757.388 269.442 757.388 271.901L757.388 296.806C757.388 303.864 755.684 309.398 752.272 313.405 748.863 317.412 744.045 319.421 737.819 319.428 730.74 319.428 725.217 317.519 721.241 313.692 717.269 309.866 715.289 304.661 715.296 298.078L715.296 271.862C715.402 270.527 715.179 269.187 714.644 267.958 714.074 267.097 713.223 266.459 712.238 266.151 710.576 265.595 708.858 265.237 707.111 265.084 706.686 265.084 706.474 264.712 706.474 263.975 706.474 263.249 706.683 262.884 707.111 262.884 708.847 262.884 710.952 262.962 713.422 263.118 715.895 263.274 717.868 263.352 719.342 263.352 720.954 263.352 722.945 263.274 725.302 263.118 727.654 262.962 729.879 262.884 731.651 262.884 732.08 262.884 732.289 263.26 732.289 263.975 732.289 264.691 732.08 265.084 731.651 265.084 729.908 265.24 728.189 265.595 726.524 266.137 725.535 266.448 724.682 267.083 724.09 267.933 723.534 269.155 723.293 270.495 723.388 271.834L723.388 296.894C723.388 303.399 724.621 308.172 727.084 311.208 729.546 314.241 733.554 315.765 739.106 315.772 749.515 315.772 754.72 309.161 754.72 295.931L754.72 271.862C754.72 269.403 754.135 267.749 752.963 266.93 750.911 265.836 748.637 265.219 746.316 265.123 745.898 265.123 745.678 264.758 745.678 264.014 745.678 263.274 745.883 262.923 746.316 262.923 747.538 262.923 749.125 263.001 751.117 263.157 753.108 263.313 754.798 263.391 756.059 263.391 757.321 263.391 758.908 263.313 760.821 263.157 762.734 263.001 764.425 262.923 765.739 262.923 766.157 262.923 766.377 263.299 766.377 264.014L766.441 264.053ZM825.525 317.062 825.525 317.062C825.525 317.806 825.302 318.181 824.888 318.181 823.066 318.181 821.001 318.103 818.694 317.947 816.703 317.792 815.024 317.714 813.621 317.714 812.008 317.714 810.007 317.792 807.622 317.947 805.106 318.103 802.963 318.181 801.195 318.181 800.77 318.181 800.557 317.809 800.557 317.062 800.557 316.332 800.713 315.97 801.025 315.97 802.761 315.978 804.483 315.655 806.099 315.021 807.073 314.613 807.693 313.639 807.647 312.587 807.548 311.457 807.278 310.348 806.853 309.295L802.325 295.998 786.023 295.998 781.481 308.293C780.992 309.508 780.698 310.797 780.609 312.105 780.609 314.447 782.757 315.722 787.037 315.931 787.363 315.931 787.508 316.293 787.508 317.023 787.508 317.753 787.299 318.142 786.87 318.142 785.283 318.142 783.522 318.064 781.587 317.909 779.653 317.753 778.027 317.675 776.708 317.675 775.575 317.675 774.108 317.753 772.428 317.909 770.749 318.064 769.098 318.142 767.822 318.142 767.422 318.142 767.224 317.813 767.224 317.154 767.224 316.413 767.521 316.009 768.134 315.97 770.005 315.868 771.812 315.237 773.339 314.146 775.111 312.42 776.471 310.316 777.318 307.991L795.937 262.363C796.118 261.924 796.571 261.662 797.042 261.726 797.68 261.726 798.07 261.935 798.229 262.324L814.623 307.981C815.311 310.188 816.614 312.158 818.383 313.653 820.243 314.978 822.429 315.776 824.707 315.956 825.238 315.956 825.501 316.371 825.501 317.037L825.525 317.062ZM801.482 293.486 801.482 293.486 794.506 273.163 786.973 293.433 801.482 293.486ZM892.129 317.062 892.129 317.062C892.129 317.806 891.905 318.181 891.491 318.181 889.695 318.181 887.565 318.103 885.103 317.947 882.778 317.792 880.808 317.714 879.196 317.714 877.581 317.714 875.717 317.792 873.602 317.947 871.373 318.103 869.371 318.181 867.603 318.181 867.185 318.181 866.966 317.806 866.966 317.062 866.966 316.321 867.185 316.045 867.642 315.995 869.339 315.85 871.012 315.481 872.613 314.9 873.524 314.592 874.271 313.933 874.693 313.069 875.062 311.843 875.217 310.56 875.15 309.281L875.15 291.548 844.86 291.548 844.86 309.256C844.793 310.535 844.952 311.814 845.328 313.04 845.742 313.905 846.49 314.567 847.397 314.876 849.013 315.46 850.696 315.829 852.407 315.97 852.836 315.97 853.045 316.385 853.045 317.037 853.045 317.685 852.836 318.157 852.407 318.157 850.625 318.157 848.633 318.079 846.408 317.919 844.183 317.763 842.426 317.685 840.814 317.685 839.198 317.685 837.221 317.763 834.854 317.919 832.484 318.079 830.273 318.157 828.505 318.157 828.076 318.157 827.867 317.777 827.867 317.037 827.867 316.293 828.076 316.02 828.505 315.97 830.78 315.868 833.001 315.258 835.01 314.188 836.155 313.363 836.729 311.719 836.729 309.256L836.729 271.862C836.831 270.523 836.594 269.18 836.038 267.958 835.443 267.107 834.582 266.473 833.593 266.161 831.928 265.619 830.209 265.265 828.466 265.109 828.037 265.109 827.828 264.744 827.828 264.004 827.828 263.26 828.037 262.909 828.466 262.909 830.199 262.909 832.318 262.987 834.815 263.146 837.172 263.299 839.149 263.38 840.775 263.38 842.401 263.38 844.247 263.299 846.37 263.146 848.488 262.987 850.586 262.909 852.368 262.909 852.797 262.909 853.002 263.288 853.002 264.004 853.002 264.719 852.797 265.109 852.368 265.109 850.774 265.247 849.204 265.566 847.684 266.059 846.784 266.339 846.005 266.906 845.459 267.671 844.917 268.996 844.701 270.427 844.821 271.848L844.821 288.972 875.111 288.972 875.111 271.862C875.175 270.573 875.023 269.286 874.654 268.05 874.24 267.182 873.495 266.523 872.585 266.215 870.966 265.619 869.272 265.247 867.55 265.109 867.136 265.109 866.912 264.744 866.912 264.004 866.912 263.26 867.121 262.909 867.55 262.909 869.286 262.909 871.285 262.987 873.549 263.146 875.813 263.299 877.676 263.38 879.143 263.38 880.755 263.38 882.725 263.299 885.049 263.146 887.374 262.987 889.503 262.909 891.438 262.909 891.856 262.909 892.076 263.288 892.076 264.004 892.076 264.719 891.856 265.109 891.438 265.109 889.695 265.269 887.976 265.623 886.311 266.161 885.326 266.473 884.468 267.107 883.88 267.958 883.317 269.18 883.076 270.523 883.179 271.862L883.179 309.231C883.179 311.69 883.763 313.327 884.908 314.16 886.917 315.233 889.138 315.843 891.413 315.942 891.842 315.942 892.051 316.36 892.051 317.009L892.129 317.062ZM955.465 264.053 955.465 264.053C955.465 264.801 955.253 265.169 954.827 265.162 951.497 265.591 949.261 266.215 948.113 267.008 946.969 267.802 946.413 269.442 946.413 271.901L946.413 296.806C946.413 303.864 944.705 309.398 941.296 313.405 937.888 317.412 933.069 319.421 926.84 319.428 919.765 319.428 914.238 317.519 910.266 313.692 906.294 309.866 904.306 304.661 904.306 298.078L904.306 271.862C904.413 270.527 904.189 269.187 903.658 267.958 903.084 267.097 902.234 266.459 901.249 266.151 899.594 265.595 897.876 265.237 896.136 265.084 895.707 265.084 895.498 264.719 895.498 263.975 895.498 263.235 895.707 262.884 896.136 262.884 897.872 262.884 899.973 262.962 902.446 263.118 904.919 263.274 906.893 263.352 908.367 263.352 909.979 263.352 911.966 263.274 914.326 263.118 916.686 262.962 918.801 262.884 920.675 262.884 921.09 262.884 921.313 263.26 921.313 263.975 921.313 264.691 921.09 265.084 920.675 265.084 918.932 265.24 917.214 265.595 915.549 266.137 914.56 266.448 913.703 267.079 913.114 267.933 912.555 269.152 912.314 270.495 912.413 271.834L912.413 296.894C912.413 303.399 913.646 308.172 916.108 311.208 918.571 314.241 922.582 315.765 928.144 315.772 938.55 315.772 943.755 309.161 943.755 295.931L943.755 271.862C943.755 269.403 943.171 267.749 942.001 266.93 939.946 265.839 937.675 265.219 935.351 265.123 934.936 265.123 934.713 264.758 934.713 264.014 934.713 263.274 934.922 262.923 935.351 262.923 936.573 262.923 938.175 263.001 940.152 263.157 942.129 263.313 943.833 263.391 945.098 263.391 946.359 263.391 947.957 263.313 949.856 263.157 951.759 263.001 953.463 262.923 954.778 262.923 955.207 262.923 955.412 263.299 955.412 264.014L955.465 264.053ZM1014.52 317.023 1014.52 317.023C1014.52 317.763 1014.32 318.142 1013.88 318.142 1012.06 318.142 1010 318.064 1007.69 317.909 1005.7 317.753 1004.02 317.675 1002.62 317.675 1001 317.675 998.999 317.753 996.622 317.909 994.237 318.064 991.963 318.142 990.191 318.142 989.762 318.142 989.553 317.763 989.553 317.023 989.553 316.282 989.713 315.931 990.035 315.931 991.771 315.939 993.497 315.616 995.109 314.978 996.076 314.574 996.693 313.618 996.657 312.573 996.558 311.442 996.289 310.333 995.864 309.281L991.339 295.984 975.048 295.984 970.52 308.293C970.027 309.508 969.733 310.797 969.648 312.105 969.648 314.447 971.795 315.722 976.075 315.931 976.387 315.931 976.543 316.293 976.543 317.023 976.543 317.753 976.334 318.142 975.905 318.142 974.318 318.142 972.557 318.064 970.623 317.909 968.791 317.753 967.175 317.675 965.744 317.675 964.599 317.675 963.171 317.753 961.464 317.909 959.756 318.064 958.218 318.142 956.858 318.142 956.454 318.142 956.259 317.806 956.259 317.154 956.259 316.502 956.56 316.009 957.169 315.97 959.044 315.868 960.847 315.237 962.374 314.146 964.146 312.42 965.506 310.316 966.357 307.991L984.99 262.363C985.163 261.92 985.62 261.655 986.095 261.726 986.733 261.726 987.133 261.935 987.289 262.324L1003.68 307.981C1004.37 310.188 1005.68 312.158 1007.45 313.653 1009.31 314.978 1011.49 315.776 1013.77 315.956 1014.3 315.956 1014.56 316.371 1014.56 317.037L1014.52 317.023ZM990.478 293.447 990.478 293.447 983.544 273.163 976.012 293.433 990.478 293.447ZM902.627 234.522 902.627 234.522C902.751 237.834 901.486 241.048 899.14 243.393 893.939 247.992 886.127 247.992 880.925 243.393 878.583 241.048 877.318 237.834 877.439 234.522 877.216 227.563 882.676 221.738 889.634 221.515 896.596 221.292 902.418 226.752 902.641 233.71 902.652 233.979 902.652 234.249 902.641 234.522L902.627 234.522ZM898.868 234.522 898.868 234.522C898.999 231.574 898.134 228.668 896.423 226.27 893.758 222.737 888.734 222.029 885.198 224.693 884.6 225.143 884.068 225.674 883.618 226.27 881.914 228.675 881.06 231.577 881.188 234.522 881.049 237.42 881.9 240.283 883.593 242.639 886.392 246.189 891.537 246.798 895.087 243.999 895.594 243.603 896.051 243.145 896.448 242.639 898.152 240.286 899.002 237.423 898.868 234.522ZM936.768 245.838 936.768 245.838C936.768 246.164 936.68 246.32 936.495 246.32 935.727 246.32 934.805 246.32 933.711 246.217 932.619 246.115 931.787 246.115 931.11 246.115 930.433 246.115 929.576 246.115 928.506 246.217 927.439 246.32 926.557 246.32 925.788 246.32 925.579 246.32 925.476 246.164 925.476 245.838 925.476 245.516 925.565 245.395 925.749 245.371 926.699 245.321 927.63 245.073 928.481 244.644 929.023 244.177 929.296 243.468 929.211 242.756L929.211 242.483 928.495 225.908 920.247 246.593C920.169 246.781 919.977 246.894 919.776 246.869 919.517 246.869 919.361 246.777 919.308 246.593L911.502 226.741 910.28 242.497C910.269 242.664 910.269 242.834 910.28 243.004 910.22 243.652 910.521 244.279 911.059 244.644 911.938 245.066 912.895 245.31 913.869 245.356 914.025 245.356 914.103 245.541 914.103 245.828 914.103 246.115 914 246.309 913.791 246.309 913.192 246.309 912.388 246.309 911.361 246.203 910.33 246.1 909.653 246.1 909.135 246.1 908.615 246.1 907.832 246.1 906.804 246.203 905.777 246.309 905.125 246.309 904.618 246.309 904.462 246.309 904.384 246.15 904.384 245.828 904.384 245.502 904.491 245.385 904.685 245.356 905.727 245.303 906.747 245.03 907.676 244.552 908.296 244.042 908.65 243.273 908.625 242.469L910.436 226.323C910.436 226.114 910.436 225.933 910.436 225.777 910.482 225.143 910.184 224.53 909.656 224.176 908.756 223.743 907.786 223.492 906.79 223.435 906.638 223.435 906.556 223.279 906.556 222.953 906.563 222.843 906.599 222.734 906.662 222.642 906.726 222.539 906.79 222.486 906.871 222.486 907.286 222.486 907.885 222.486 908.664 222.588 909.15 222.649 909.635 222.684 910.124 222.691 910.524 222.691 911.098 222.691 911.839 222.588 912.583 222.486 913.139 222.486 913.621 222.486L920.962 241.494 928.545 222.486C929.002 222.486 929.6 222.486 930.341 222.588 930.869 222.652 931.4 222.688 931.928 222.691 932.506 222.688 933.083 222.652 933.661 222.588 934.348 222.525 934.961 222.486 935.454 222.486 935.663 222.486 935.766 222.642 935.766 222.953 935.766 223.265 935.677 223.435 935.493 223.435 934.54 223.478 933.608 223.726 932.761 224.165 932.215 224.629 931.943 225.338 932.035 226.05L932.035 226.323 932.814 242.43C932.796 243.011 932.92 243.588 933.179 244.109 933.448 244.471 933.827 244.736 934.26 244.864 934.972 245.098 935.709 245.25 936.456 245.317 936.637 245.317 936.729 245.487 936.729 245.774L936.768 245.838ZM962.48 245.838 962.48 245.838C962.48 246.164 962.388 246.32 962.204 246.32 961.41 246.32 960.528 246.32 959.54 246.217 958.551 246.115 957.963 246.115 957.354 246.115 956.741 246.115 955.791 246.115 954.75 246.217 953.708 246.32 952.748 246.32 951.979 246.32 951.798 246.32 951.706 246.164 951.706 245.838 951.706 245.516 951.77 245.371 951.915 245.371 952.663 245.381 953.407 245.243 954.101 244.967 954.512 244.797 954.778 244.386 954.764 243.939 954.721 243.454 954.608 242.975 954.424 242.522L952.475 236.796 945.566 236.796 943.599 242.104C943.39 242.628 943.263 243.181 943.224 243.744 943.224 244.751 944.148 245.303 945.994 245.395 946.136 245.395 946.203 245.555 946.203 245.867 946.203 246.178 946.111 246.348 945.927 246.348 945.24 246.348 944.485 246.348 943.652 246.242 942.82 246.139 942.168 246.139 941.544 246.139 940.921 246.139 940.439 246.139 939.695 246.242 938.954 246.348 938.267 246.348 937.718 246.348 937.551 246.348 937.459 246.203 937.459 245.916 937.459 245.633 937.59 245.438 937.849 245.41 938.66 245.367 939.44 245.091 940.099 244.616 940.86 243.89 941.445 243 941.817 242.015L949.818 222.369C949.899 222.177 950.097 222.068 950.299 222.096 950.576 222.096 950.742 222.174 950.82 222.355L957.846 241.937C958.14 242.89 958.7 243.737 959.462 244.382 960.266 244.952 961.209 245.296 962.193 245.371 962.413 245.371 962.53 245.555 962.53 245.828L962.48 245.838ZM952.071 235.677 952.071 235.677 949.063 226.95 945.824 235.677 952.071 235.677ZM997.752 234.585 997.752 234.585C997.876 237.795 996.586 240.903 994.227 243.082 991.584 245.346 988.175 246.504 984.703 246.32L981.656 246.242 978.51 246.178C976.387 246.178 974.318 246.178 972.316 246.32 972.132 246.32 972.043 246.164 972.043 245.838 972.043 245.516 972.132 245.395 972.316 245.371 973.057 245.307 973.783 245.154 974.488 244.917 974.913 244.789 975.285 244.524 975.54 244.162 975.781 243.634 975.884 243.057 975.842 242.483L975.842 226.415C975.884 225.844 975.792 225.274 975.569 224.75 975.321 224.378 974.952 224.105 974.527 223.967 973.815 223.726 973.078 223.57 972.327 223.499 972.146 223.499 972.054 223.343 972.054 223.017 972.054 222.691 972.146 222.549 972.327 222.549 973.627 222.642 975.725 222.691 978.52 222.691L981.67 222.691 984.714 222.691C988.182 222.535 991.576 223.736 994.174 226.036 996.565 228.25 997.876 231.393 997.766 234.649L997.752 234.585ZM993.993 234.585 993.993 234.585C994.12 231.751 993.192 228.97 991.389 226.78 989.759 224.785 987.303 223.644 984.728 223.683L984.597 223.683 981.383 223.747C980.083 223.747 979.353 224.463 979.353 225.738L979.353 243.106C979.353 244.41 980.029 245.059 981.383 245.059L984.597 245.165C987.176 245.2 989.635 244.088 991.311 242.132 993.146 240.045 994.12 237.338 994.032 234.557L993.993 234.585ZM1021.29 240.633 1021.29 240.633C1020.42 242.469 1019.67 244.354 1019.04 246.281 1014.7 246.143 1011.64 246.076 1009.85 246.076 1008.07 246.076 1005.01 246.143 1000.68 246.281 1000.5 246.281 1000.41 246.125 1000.41 245.799 1000.41 245.477 1000.5 245.356 1000.68 245.332 1001.42 245.268 1002.15 245.115 1002.85 244.878 1003.28 244.751 1003.65 244.485 1003.91 244.123 1004.15 243.595 1004.25 243.018 1004.2 242.444L1004.2 226.323C1004.25 225.756 1004.15 225.182 1003.93 224.658 1003.68 224.286 1003.32 224.013 1002.89 223.878 1002.17 223.637 1001.43 223.485 1000.68 223.421 1000.5 223.421 1000.41 223.265 1000.41 222.939 1000.41 222.617 1000.5 222.471 1000.68 222.471 1003.56 222.603 1006.5 222.67 1009.5 222.681 1012.5 222.688 1015.45 222.62 1018.35 222.471 1018.61 224.229 1018.99 225.969 1019.49 227.676 1019.49 227.91 1019.3 228.027 1018.89 228.027 1018.73 228.052 1018.57 227.946 1018.53 227.783 1017.96 225.288 1015.67 223.58 1013.12 223.747L1009.67 223.747C1008.69 223.619 1007.8 224.307 1007.67 225.281 1007.65 225.455 1007.65 225.632 1007.68 225.802L1007.68 233.413 1011.98 233.413C1012.84 233.526 1013.7 233.239 1014.32 232.633 1014.82 231.79 1015.11 230.833 1015.16 229.848 1015.16 229.668 1015.32 229.575 1015.64 229.575 1015.97 229.575 1016.12 229.668 1016.12 229.848 1016.12 230.408 1016.12 231.152 1016.02 231.995 1015.91 232.842 1015.91 233.505 1015.91 234.04 1015.91 234.571 1015.91 235.262 1016.02 236.095 1016.12 236.927 1016.12 237.707 1016.12 238.281 1016.12 238.462 1015.97 238.554 1015.64 238.554 1015.32 238.554 1015.16 238.462 1015.16 238.281 1015.11 237.246 1014.8 236.24 1014.26 235.354 1013.68 234.734 1012.83 234.426 1011.98 234.522L1007.68 234.522 1007.68 242.94C1007.53 243.904 1008.2 244.807 1009.16 244.952 1009.33 244.977 1009.5 244.977 1009.67 244.956L1013.4 244.956C1014.85 244.931 1016.25 244.478 1017.44 243.652 1018.71 242.844 1019.72 241.703 1020.38 240.35 1020.43 240.244 1020.54 240.18 1020.67 240.194 1020.81 240.191 1020.97 240.23 1021.09 240.311 1021.2 240.378 1021.27 240.495 1021.27 240.623L1021.29 240.633ZM497.441 219.974 497.441 219.974C497.441 220.339 497.335 220.519 497.126 220.519 495.988 220.583 494.876 220.888 493.863 221.419 493.218 222.032 492.909 222.918 493.03 223.8L493.03 235.91C493.196 238.819 492.311 241.686 490.532 243.992 488.761 245.991 486.171 247.068 483.506 246.919 480.551 247.096 477.649 246.09 475.438 244.123 473.444 242.111 472.388 239.354 472.537 236.523L472.537 223.786C472.583 223.145 472.476 222.503 472.225 221.912 471.948 221.49 471.534 221.178 471.056 221.029 470.248 220.757 469.415 220.583 468.568 220.505 468.359 220.505 468.257 220.324 468.257 219.959 468.257 219.598 468.359 219.428 468.568 219.428 469.426 219.428 470.457 219.428 471.64 219.545 472.824 219.662 473.734 219.662 474.514 219.662 475.297 219.662 476.271 219.662 477.415 219.545 478.56 219.428 479.641 219.428 480.512 219.428 480.721 219.428 480.824 219.609 480.824 219.959 480.824 220.314 480.721 220.505 480.512 220.505 479.669 220.587 478.833 220.76 478.028 221.029 477.547 221.178 477.132 221.486 476.845 221.897 476.572 222.493 476.459 223.148 476.505 223.8L476.505 235.988C476.505 239.156 477.104 241.48 478.301 242.965 479.499 244.449 481.448 245.19 484.154 245.19 489.246 245.19 491.793 241.973 491.793 235.535L491.793 223.825C491.914 222.932 491.595 222.032 490.936 221.419 489.937 220.884 488.828 220.579 487.694 220.533 487.485 220.533 487.382 220.353 487.382 219.988 487.382 219.623 487.485 219.453 487.694 219.453 488.279 219.453 489.072 219.453 490.036 219.57 491 219.687 491.832 219.687 492.442 219.687 493.055 219.687 493.834 219.687 494.759 219.57 495.684 219.453 496.516 219.453 497.154 219.453 497.363 219.453 497.466 219.637 497.466 219.988L497.441 219.974ZM527.235 222.967 527.235 222.967C527.235 223.251 527.143 223.396 526.962 223.421 525.942 223.467 524.939 223.74 524.036 224.215 523.43 224.739 523.118 225.526 523.203 226.323L522.824 246.49C522.824 246.724 522.693 246.841 522.409 246.841 522.204 246.805 522.013 246.713 521.86 246.568L504.219 226.635 503.985 242.458C503.985 242.547 503.985 242.639 503.985 242.717 503.914 243.432 504.226 244.127 504.804 244.552 505.721 245.016 506.728 245.289 507.759 245.346 507.939 245.346 508.031 245.526 508.031 245.813 508.031 246.1 507.939 246.295 507.759 246.295 507.174 246.295 506.352 246.295 505.31 246.189 504.272 246.086 503.595 246.086 503.075 246.086 502.554 246.086 501.771 246.086 500.757 246.189 499.744 246.295 499.092 246.295 498.586 246.295 498.401 246.295 498.313 246.139 498.313 245.813 498.313 245.487 498.415 245.371 498.625 245.346 499.641 245.293 500.637 245.023 501.537 244.552 502.136 244.028 502.444 243.248 502.37 242.458L502.968 226.348 502.968 226.192C503.05 225.455 502.745 224.728 502.164 224.268 501.236 223.782 500.215 223.503 499.17 223.449 499.014 223.449 498.922 223.29 498.922 222.967 498.922 222.642 499.014 222.496 499.195 222.496 499.599 222.496 500.159 222.496 500.874 222.603 501.353 222.663 501.838 222.698 502.32 222.705 502.802 222.702 503.284 222.666 503.762 222.603 504.251 222.542 504.74 222.507 505.232 222.496L521.704 240.92 521.704 226.323C521.789 225.547 521.481 224.782 520.886 224.282 519.94 223.772 518.888 223.485 517.814 223.435 517.633 223.435 517.541 223.251 517.541 222.978 517.541 222.705 517.633 222.496 517.814 222.496 518.427 222.496 519.26 222.496 520.273 222.603 521.29 222.705 521.977 222.705 522.498 222.705 523.019 222.705 523.802 222.705 524.815 222.603 525.828 222.496 526.466 222.496 526.987 222.496 527.171 222.496 527.26 222.652 527.26 222.978L527.235 222.967ZM540.43 245.838 540.43 245.838C540.43 246.164 540.337 246.32 540.153 246.32 539.398 246.32 538.488 246.32 537.436 246.217 536.383 246.115 535.576 246.115 534.835 246.115 534.091 246.115 533.283 246.115 532.231 246.217 531.179 246.32 530.254 246.32 529.474 246.32 529.29 246.32 529.198 246.164 529.198 245.838 529.198 245.516 529.29 245.395 529.474 245.371 530.463 245.328 531.427 245.062 532.298 244.591 532.872 244.045 533.148 243.255 533.039 242.469L533.039 226.323C533.081 225.749 532.978 225.168 532.737 224.643 532.482 224.278 532.11 224.009 531.685 223.878 530.966 223.641 530.225 223.488 529.474 223.421 529.29 223.421 529.198 223.265 529.198 222.939 529.198 222.617 529.29 222.471 529.474 222.471 530.254 222.471 531.171 222.507 532.231 222.578 533.234 222.652 534.08 222.681 534.835 222.681 535.59 222.681 536.369 222.681 537.436 222.578 538.502 222.471 539.398 222.471 540.153 222.471 540.337 222.471 540.43 222.627 540.43 222.939 540.43 223.251 540.337 223.421 540.153 223.421 539.413 223.492 538.679 223.644 537.967 223.878 537.549 224.009 537.184 224.275 536.929 224.633 536.695 225.164 536.596 225.745 536.642 226.323L536.642 242.458C536.599 243.025 536.699 243.599 536.929 244.123 537.177 244.488 537.545 244.761 537.967 244.889 538.672 245.13 539.402 245.282 540.143 245.346 540.337 245.346 540.43 245.526 540.43 245.813L540.43 245.838ZM568.778 222.929 568.778 222.929C568.778 223.29 568.647 223.474 568.402 223.474 567.587 223.499 566.801 223.751 566.124 224.204 565.362 224.973 564.781 225.901 564.42 226.922L555.831 246.582C555.75 246.767 555.555 246.876 555.353 246.855 555.151 246.869 554.97 246.745 554.91 246.554L547.246 226.907C546.988 226.135 546.634 225.395 546.191 224.711 545.9 224.339 545.507 224.059 545.06 223.903 544.32 223.665 543.558 223.51 542.782 223.449 542.69 223.439 542.609 223.382 542.563 223.304 542.485 223.208 542.446 223.088 542.446 222.967 542.446 222.652 542.524 222.496 542.679 222.496 543.445 222.496 544.292 222.496 545.28 222.603 546.269 222.705 546.945 222.705 547.636 222.705 548.327 222.705 549.199 222.705 550.237 222.603 551.279 222.496 552.228 222.496 552.997 222.496 553.178 222.496 553.27 222.652 553.27 222.967 553.27 223.279 553.27 223.449 553.1 223.449 552.359 223.442 551.622 223.573 550.928 223.839 550.517 224.006 550.255 224.41 550.265 224.852 550.325 225.366 550.467 225.866 550.68 226.337L556.537 241.937 562.677 226.819C562.847 226.341 562.953 225.841 562.989 225.334 562.989 224.208 561.996 223.588 560.009 223.474 559.881 223.474 559.8 223.318 559.8 222.992 559.8 222.666 559.906 222.525 560.115 222.525 560.646 222.525 561.415 222.525 562.22 222.627 563.028 222.73 563.963 222.73 564.604 222.73 565.238 222.73 565.773 222.73 566.567 222.627 567.361 222.525 568.062 222.525 568.608 222.525 568.753 222.525 568.817 222.652 568.817 222.929L568.778 222.929ZM590.678 240.633 590.678 240.633C589.803 242.469 589.048 244.354 588.414 246.281 584.077 246.143 581.012 246.076 579.227 246.076 577.441 246.076 574.404 246.143 570.121 246.281 569.937 246.281 569.848 246.125 569.848 245.799 569.848 245.477 569.937 245.356 570.121 245.332 570.858 245.268 571.588 245.115 572.293 244.878 572.718 244.751 573.09 244.485 573.345 244.123 573.589 243.599 573.692 243.018 573.646 242.444L573.646 226.323C573.685 225.752 573.589 225.182 573.359 224.658 573.111 224.286 572.746 224.009 572.318 223.878 571.602 223.637 570.858 223.485 570.107 223.421 569.922 223.421 569.834 223.265 569.834 222.939 569.834 222.617 569.922 222.471 570.107 222.471 572.977 222.603 575.917 222.67 578.929 222.681 581.937 222.688 584.885 222.62 587.776 222.471 588.038 224.229 588.421 225.969 588.92 227.676 588.92 227.91 588.726 228.027 588.322 228.027 588.155 228.052 587.996 227.946 587.957 227.783 587.39 225.288 585.094 223.58 582.546 223.747L579.085 223.747C578.107 223.627 577.218 224.321 577.097 225.299 577.076 225.465 577.079 225.635 577.108 225.802L577.108 233.413 581.413 233.413C582.263 233.522 583.117 233.235 583.73 232.633 584.237 231.79 584.527 230.833 584.573 229.848 584.573 229.668 584.733 229.575 585.055 229.575 585.381 229.575 585.523 229.668 585.523 229.848 585.523 230.408 585.523 231.152 585.42 231.995 585.317 232.842 585.317 233.505 585.317 234.04 585.317 234.571 585.317 235.262 585.42 236.095 585.523 236.927 585.523 237.707 585.523 238.281 585.523 238.462 585.367 238.554 585.055 238.554 584.743 238.554 584.573 238.462 584.573 238.281 584.52 237.246 584.212 236.24 583.677 235.354 583.092 234.738 582.256 234.426 581.413 234.522L577.108 234.522 577.108 242.94C576.963 243.904 577.629 244.804 578.596 244.949 578.755 244.974 578.922 244.977 579.085 244.956L582.819 244.956C584.261 244.931 585.664 244.478 586.851 243.652 588.12 242.844 589.137 241.703 589.792 240.35 589.842 240.24 589.959 240.176 590.079 240.194 590.228 240.187 590.38 240.23 590.508 240.311 590.618 240.375 590.685 240.495 590.688 240.623L590.678 240.633ZM615.852 245.838 615.852 245.838C615.852 246.164 615.763 246.32 615.579 246.32 615.15 246.32 614.473 246.32 613.51 246.203 612.822 246.203 612.355 246.115 612.131 246.115 611.912 246.115 611.285 246.115 610.569 246.217 609.857 246.32 609.346 246.32 609.01 246.32L603.805 237.877C603.344 237.034 602.746 236.272 602.034 235.627 601.194 235.209 600.251 235.039 599.316 235.131L599.316 242.483C599.273 243.053 599.376 243.627 599.617 244.148 599.876 244.517 600.251 244.786 600.68 244.917 601.392 245.151 602.126 245.303 602.866 245.371 603.065 245.371 603.153 245.555 603.153 245.838 603.153 246.125 603.065 246.32 602.88 246.32 602.115 246.32 601.201 246.32 600.134 246.217 599.068 246.115 598.264 246.115 597.534 246.115 596.804 246.115 595.985 246.115 594.933 246.217 593.877 246.32 592.967 246.32 592.212 246.32 592.031 246.32 591.939 246.164 591.939 245.838 591.939 245.516 592.031 245.395 592.212 245.371 592.953 245.307 593.682 245.154 594.384 244.917 594.809 244.789 595.181 244.524 595.44 244.162 595.681 243.638 595.783 243.057 595.737 242.483L595.737 226.323C595.783 225.756 595.688 225.182 595.465 224.658 595.217 224.286 594.852 224.009 594.423 223.878 593.707 223.637 592.967 223.485 592.212 223.421 592.031 223.421 591.939 223.265 591.939 222.939 591.939 222.617 592.031 222.471 592.212 222.471 592.974 222.471 593.881 222.507 594.933 222.578 595.932 222.652 596.779 222.681 597.534 222.681 598.288 222.681 599.082 222.681 600.134 222.578 601.19 222.471 602.115 222.471 602.88 222.471 604.971 222.34 607.051 222.904 608.787 224.073 610.176 225.129 610.955 226.805 610.87 228.548 610.852 229.809 610.36 231.017 609.492 231.932 608.475 233.037 607.192 233.863 605.768 234.337L610.973 242.912C611.391 243.631 612.004 244.212 612.744 244.591 613.623 244.991 614.565 245.243 615.529 245.332 615.685 245.332 615.774 245.516 615.774 245.789L615.852 245.838ZM607.136 228.679 607.136 228.679C607.136 225.338 605.683 223.669 602.778 223.669 602.041 223.644 601.304 223.722 600.591 223.903 600.173 223.999 599.816 224.261 599.603 224.633 599.394 225.189 599.305 225.781 599.341 226.376L599.341 234.001C600.17 234.096 601.006 234.139 601.839 234.132 603.302 234.259 604.751 233.792 605.86 232.828 606.824 231.666 607.292 230.171 607.16 228.665L607.136 228.679ZM632.221 239.439 632.221 239.439C632.323 241.445 631.594 243.401 630.205 244.85 628.734 246.242 626.761 246.968 624.741 246.869 623.508 246.834 622.282 246.65 621.095 246.32 620.064 246.012 618.998 245.838 617.921 245.799 617.853 243.858 617.719 241.92 617.517 239.985 617.517 239.801 617.687 239.712 618.027 239.712 618.218 239.687 618.403 239.801 618.466 239.985 618.838 241.661 619.653 243.206 620.823 244.46 621.956 245.388 623.395 245.852 624.855 245.764 626.063 245.835 627.243 245.392 628.097 244.538 628.897 243.61 629.305 242.405 629.227 241.183 629.223 240.222 628.873 239.298 628.238 238.578 626.991 237.352 625.567 236.321 624.011 235.521 622.194 234.603 620.553 233.374 619.157 231.893 618.41 230.954 618.009 229.788 618.013 228.587 617.985 226.791 618.736 225.069 620.068 223.864 621.489 222.574 623.356 221.887 625.273 221.951 626.201 221.965 627.126 222.071 628.033 222.277 628.862 222.454 629.705 222.549 630.555 222.564 630.687 224.565 630.881 226.348 631.101 227.871 631.101 228.055 630.959 228.144 630.658 228.144 630.361 228.144 630.166 228.055 630.127 227.871 629.911 226.504 629.315 225.221 628.408 224.176 627.547 223.393 626.407 222.992 625.248 223.056 623.097 222.9 621.227 224.516 621.071 226.667 621.056 226.854 621.056 227.046 621.071 227.233 621.095 228.094 621.432 228.92 622.02 229.551 623.25 230.723 624.638 231.715 626.144 232.502 627.976 233.441 629.638 234.677 631.062 236.158 631.817 237.065 632.231 238.206 632.235 239.386L632.221 239.439ZM646.531 245.838 646.531 245.838C646.531 246.164 646.443 246.32 646.259 246.32 645.493 246.32 644.579 246.32 643.541 246.217 642.499 246.115 641.691 246.115 640.937 246.115 640.182 246.115 639.392 246.115 638.336 246.217 637.28 246.32 636.359 246.32 635.576 246.32 635.395 246.32 635.303 246.164 635.303 245.838 635.303 245.516 635.395 245.395 635.576 245.371 636.607 245.328 637.61 245.045 638.506 244.538 639.08 243.992 639.357 243.202 639.247 242.419L639.247 226.323C639.293 225.749 639.194 225.171 638.96 224.643 638.701 224.282 638.333 224.009 637.907 223.878 637.188 223.641 636.448 223.488 635.693 223.421 635.512 223.421 635.42 223.265 635.42 222.939 635.42 222.617 635.512 222.471 635.693 222.471 636.465 222.471 637.387 222.507 638.453 222.578 639.456 222.652 640.313 222.681 641.054 222.681 641.798 222.681 642.602 222.681 643.658 222.578 644.71 222.471 645.61 222.471 646.375 222.471 646.56 222.471 646.652 222.627 646.652 222.939 646.652 223.251 646.56 223.421 646.375 223.421 645.635 223.492 644.902 223.644 644.189 223.878 643.771 224.006 643.403 224.271 643.151 224.633 642.914 225.164 642.818 225.745 642.864 226.323L642.864 242.458C642.818 243.025 642.917 243.599 643.151 244.123 643.399 244.492 643.768 244.761 644.189 244.889 644.898 245.13 645.631 245.282 646.375 245.346 646.574 245.346 646.662 245.526 646.662 245.813L646.531 245.838ZM675.262 234.571 675.262 234.571C675.383 237.785 674.097 240.889 671.733 243.068 669.09 245.335 665.675 246.497 662.199 246.309L659.152 246.228 656.006 246.164C653.883 246.164 651.814 246.164 649.812 246.309 649.628 246.309 649.536 246.15 649.536 245.828 649.536 245.502 649.628 245.385 649.812 245.356 650.549 245.293 651.279 245.14 651.984 244.903 652.409 244.772 652.778 244.506 653.036 244.148 653.27 243.62 653.37 243.046 653.323 242.469L653.323 226.415C653.366 225.844 653.267 225.274 653.036 224.75 652.792 224.378 652.424 224.101 651.998 223.967 651.283 223.722 650.539 223.566 649.784 223.499 649.603 223.499 649.511 223.343 649.511 223.017 649.511 222.691 649.603 222.549 649.784 222.549 651.088 222.642 653.182 222.691 655.981 222.691L659.127 222.691 662.171 222.691C665.639 222.532 669.034 223.733 671.631 226.036 674.022 228.25 675.333 231.393 675.223 234.649L675.262 234.571ZM671.5 234.571 671.5 234.571C671.631 231.737 670.702 228.955 668.899 226.766 667.262 224.771 664.807 223.63 662.224 223.669L662.121 223.669 658.907 223.733C657.604 223.733 656.888 224.449 656.888 225.71L656.888 243.106C656.888 244.41 657.565 245.059 658.907 245.059L662.121 245.165C664.697 245.2 667.159 244.091 668.832 242.132 670.667 240.045 671.641 237.338 671.553 234.557L671.5 234.571ZM701.906 245.838 701.906 245.838C701.906 246.164 701.818 246.32 701.634 246.32 700.84 246.32 699.954 246.32 698.966 246.217 697.977 246.115 697.393 246.115 696.783 246.115 696.17 246.115 695.221 246.115 694.179 246.217 693.137 246.32 692.177 246.32 691.408 246.32 691.224 246.32 691.135 246.164 691.135 245.838 691.135 245.516 691.199 245.371 691.344 245.371 692.092 245.381 692.833 245.243 693.531 244.967 693.942 244.797 694.204 244.386 694.193 243.939 694.151 243.454 694.037 242.975 693.853 242.522L691.901 236.796 684.864 236.796 682.898 242.104C682.689 242.628 682.558 243.181 682.522 243.744 682.522 244.751 683.443 245.303 685.293 245.395 685.424 245.395 685.502 245.555 685.502 245.867 685.502 246.178 685.41 246.348 685.229 246.348 684.538 246.348 683.784 246.348 682.951 246.242 682.118 246.139 681.466 246.139 680.843 246.139 680.219 246.139 679.737 246.139 678.993 246.242 678.253 246.348 677.565 246.348 677.016 246.348 676.85 246.348 676.772 246.203 676.772 245.916 676.772 245.633 676.899 245.438 677.161 245.41 677.973 245.367 678.752 245.091 679.411 244.616 680.17 243.886 680.754 242.997 681.13 242.015L689.13 222.355C689.212 222.163 689.41 222.053 689.612 222.082 689.885 222.082 690.055 222.16 690.119 222.34L697.223 241.937C697.517 242.89 698.076 243.737 698.838 244.382 699.639 244.952 700.578 245.293 701.556 245.371 701.79 245.371 701.896 245.555 701.896 245.828L701.906 245.838ZM691.497 235.677 691.497 235.677 688.492 226.95 685.24 235.677 691.497 235.677ZM728.618 234.585 728.618 234.585C728.742 237.795 727.456 240.899 725.093 243.082 722.453 245.346 719.041 246.504 715.569 246.32L712.525 246.242 709.375 246.178C707.257 246.178 705.187 246.178 703.182 246.32 703.001 246.32 702.909 246.164 702.909 245.838 702.909 245.516 703.001 245.395 703.182 245.371 703.923 245.307 704.652 245.154 705.357 244.917 705.779 244.786 706.151 244.524 706.41 244.162 706.651 243.638 706.753 243.057 706.707 242.483L706.707 226.415C706.753 225.844 706.661 225.274 706.435 224.75 706.187 224.378 705.822 224.101 705.396 223.967 704.684 223.726 703.944 223.566 703.196 223.499 703.012 223.499 702.923 223.343 702.923 223.017 702.923 222.691 703.012 222.549 703.196 222.549 704.497 222.642 706.591 222.691 709.39 222.691L712.539 222.691 715.583 222.691C719.052 222.535 722.442 223.736 725.039 226.036 727.431 228.25 728.742 231.393 728.632 234.649L728.618 234.585ZM724.859 234.585 724.859 234.585C724.99 231.751 724.062 228.97 722.258 226.78 720.625 224.785 718.173 223.644 715.597 223.683L715.491 223.683 712.277 223.747C710.977 223.747 710.261 224.463 710.261 225.724L710.261 243.106C710.261 244.41 710.938 245.059 712.277 245.059L715.491 245.165C718.063 245.197 720.518 244.088 722.191 242.132 724.026 240.045 725 237.338 724.912 234.557L724.859 234.585ZM767.078 245.838 767.078 245.838C767.078 246.203 766.976 246.373 766.767 246.373 765.87 246.373 764.867 246.373 763.748 246.256 762.628 246.139 761.966 246.139 761.278 246.139 760.587 246.139 759.521 246.139 758.362 246.256 757.204 246.373 756.098 246.373 755.227 246.373 755.018 246.373 754.929 246.189 754.929 245.838 754.929 245.487 755.003 245.307 755.163 245.307 756.006 245.314 756.846 245.158 757.632 244.85 758.104 244.655 758.405 244.191 758.391 243.68 758.338 243.131 758.206 242.589 757.997 242.079L755.797 235.574 747.797 235.574 745.586 241.558C745.345 242.153 745.2 242.781 745.157 243.418 745.157 244.556 746.199 245.176 748.279 245.278 748.435 245.278 748.513 245.463 748.513 245.813 748.513 246.164 748.41 246.348 748.201 246.348 747.432 246.348 746.574 246.348 745.597 246.228 744.622 246.115 743.921 246.115 743.219 246.115 742.514 246.115 741.915 246.115 741.136 246.228 740.356 246.348 739.509 246.348 738.886 246.348 738.691 246.348 738.599 246.189 738.599 245.867 738.599 245.541 738.741 245.307 739.042 245.278 739.977 245.243 740.881 244.938 741.642 244.396 742.507 243.553 743.169 242.525 743.581 241.392L752.626 219.194C752.711 218.982 752.931 218.854 753.158 218.882 753.469 218.882 753.664 218.974 753.742 219.166L761.721 241.377C762.054 242.455 762.692 243.418 763.553 244.148 764.456 244.793 765.519 245.179 766.625 245.268 766.883 245.268 767.015 245.477 767.015 245.789L767.078 245.838ZM755.368 234.362 755.368 234.362 751.974 224.502 748.303 234.362 755.368 234.362ZM793.453 223.031 793.453 223.031C793.453 223.357 793.361 223.513 793.18 223.513 792.167 223.563 791.175 223.832 790.279 224.307 789.708 224.849 789.432 225.632 789.538 226.415L789.538 237.147C789.69 239.719 788.907 242.26 787.338 244.304 785.761 246.072 783.469 247.029 781.105 246.908 778.487 247.064 775.911 246.175 773.948 244.435 772.173 242.66 771.227 240.215 771.348 237.707L771.348 226.323C771.394 225.756 771.298 225.182 771.075 224.658 770.827 224.286 770.458 224.009 770.033 223.878 769.321 223.637 768.584 223.485 767.833 223.421 767.652 223.421 767.56 223.265 767.56 222.939 767.56 222.617 767.652 222.471 767.833 222.471 768.602 222.471 769.498 222.471 770.554 222.578 771.606 222.681 772.4 222.681 773.155 222.681 773.909 222.681 774.703 222.681 775.759 222.578 776.811 222.471 777.722 222.471 778.491 222.471 778.671 222.471 778.763 222.627 778.763 222.939 778.763 223.251 778.671 223.421 778.491 223.421 777.736 223.488 776.996 223.641 776.28 223.878 775.851 224.009 775.483 224.282 775.224 224.643 774.987 225.171 774.884 225.749 774.926 226.323L774.926 237.122C774.746 239.301 775.305 241.48 776.514 243.301 777.846 244.729 779.77 245.456 781.718 245.268 786.218 245.268 788.472 242.419 788.472 236.718L788.472 226.309C788.574 225.522 788.294 224.732 787.713 224.19 786.828 223.715 785.846 223.446 784.84 223.41 784.659 223.41 784.567 223.251 784.567 222.929 784.567 222.603 784.659 222.457 784.84 222.457 785.371 222.457 786.062 222.457 786.909 222.564 787.752 222.666 788.496 222.666 789.042 222.666 789.588 222.666 790.279 222.666 791.097 222.564 791.919 222.457 792.645 222.457 793.219 222.457 793.414 222.457 793.492 222.617 793.492 222.929L793.453 223.031ZM818.173 228.236 818.173 228.236C818.173 228.456 817.964 228.562 817.564 228.562 817.408 228.58 817.263 228.481 817.224 228.328 816.905 226.989 816.168 225.788 815.116 224.906 813.901 224.158 812.483 223.807 811.055 223.903L809.457 223.903C809.053 223.86 808.65 223.956 808.313 224.176 808.065 224.459 807.952 224.831 807.998 225.203L807.998 242.458C807.959 243.029 808.061 243.603 808.299 244.123 808.557 244.492 808.933 244.761 809.365 244.889 810.07 245.126 810.8 245.278 811.537 245.346 811.721 245.346 811.81 245.526 811.81 245.813 811.81 246.1 811.721 246.295 811.537 246.295 810.772 246.295 809.861 246.295 808.805 246.189 807.753 246.086 806.974 246.086 806.293 246.086 805.62 246.086 804.749 246.086 803.693 246.189 802.64 246.295 801.716 246.295 800.947 246.295 800.766 246.295 800.674 246.139 800.674 245.813 800.674 245.487 800.766 245.371 800.947 245.346 801.928 245.289 802.885 245.016 803.746 244.538 804.32 243.992 804.596 243.202 804.486 242.419L804.486 225.086C804.536 224.718 804.423 224.342 804.175 224.059 803.827 223.836 803.413 223.74 803.002 223.786L801.702 223.786C800.153 223.768 798.633 224.19 797.319 225.008 796.082 225.703 795.154 226.837 794.715 228.183 794.665 228.346 794.506 228.452 794.339 228.431 793.946 228.431 793.751 228.314 793.751 228.066 794.452 226.146 795.058 224.193 795.561 222.213 799.09 222.642 802.648 222.805 806.205 222.691 809.833 222.805 813.465 222.645 817.068 222.213 817.234 223.694 817.575 225.66 818.095 228.105L818.173 228.236ZM844.924 234.638 844.924 234.638C845.048 237.951 843.783 241.165 841.437 243.51 836.24 248.113 828.42 248.113 823.222 243.51 820.877 241.165 819.615 237.951 819.736 234.638 819.736 227.676 825.377 222.036 832.335 222.036 839.297 222.036 844.938 227.676 844.938 234.638L844.924 234.638ZM841.165 234.638 841.165 234.638C841.296 231.694 840.438 228.789 838.731 226.39 836.073 222.851 831.049 222.135 827.51 224.796 826.907 225.249 826.369 225.784 825.915 226.39 824.211 228.792 823.357 231.694 823.481 234.638 823.35 237.537 824.197 240.4 825.89 242.756 828.7 246.306 833.855 246.905 837.405 244.099 837.901 243.702 838.351 243.252 838.745 242.756 840.449 240.403 841.303 237.54 841.165 234.638ZM837.912 216.122 837.912 216.122C837.933 216.377 837.813 216.622 837.6 216.76L831.616 220.47C831.524 220.533 831.414 220.569 831.301 220.572 831.223 220.572 831.106 220.494 830.95 220.339 830.819 220.225 830.737 220.069 830.716 219.896 830.734 219.765 830.805 219.648 830.911 219.57L836.024 214.73C836.144 214.616 836.304 214.556 836.466 214.563 836.87 214.574 837.246 214.769 837.483 215.095 837.738 215.385 837.891 215.75 837.912 216.136L837.912 216.122ZM875.827 223.084 875.827 223.084C875.827 223.371 875.735 223.513 875.554 223.538 874.526 223.584 873.52 223.857 872.613 224.332 872.007 224.856 871.699 225.643 871.777 226.44L871.401 246.49C871.401 246.724 871.274 246.841 870.987 246.841 870.778 246.805 870.59 246.713 870.441 246.568L852.797 226.635 852.563 242.458C852.556 242.543 852.556 242.632 852.563 242.717 852.492 243.432 852.804 244.127 853.381 244.552 854.302 245.02 855.316 245.289 856.347 245.346 856.531 245.346 856.623 245.526 856.623 245.813 856.623 246.1 856.531 246.295 856.347 246.295 855.748 246.295 854.944 246.295 853.902 246.189 852.86 246.086 852.184 246.086 851.666 246.086 851.146 246.086 850.363 246.086 849.349 246.189 848.332 246.295 847.695 246.295 847.174 246.295 846.993 246.295 846.901 246.139 846.901 245.813 846.901 245.487 847.007 245.371 847.213 245.346 848.226 245.293 849.218 245.02 850.115 244.552 850.72 244.031 851.032 243.252 850.961 242.458L851.56 226.348 851.56 226.192C851.638 225.455 851.337 224.728 850.752 224.268 849.828 223.782 848.807 223.503 847.762 223.449 847.606 223.449 847.528 223.29 847.528 222.967 847.528 222.642 847.617 222.496 847.801 222.496 848.205 222.496 848.765 222.496 849.48 222.603 849.959 222.663 850.44 222.698 850.922 222.705 851.401 222.702 851.879 222.666 852.354 222.603 852.843 222.539 853.332 222.503 853.824 222.496L870.296 240.92 870.296 226.323C870.374 225.547 870.062 224.782 869.463 224.282 868.517 223.772 867.469 223.485 866.392 223.435 866.211 223.435 866.119 223.251 866.119 222.978 866.119 222.705 866.211 222.496 866.392 222.496 867.005 222.496 867.837 222.496 868.85 222.603 869.867 222.705 870.555 222.705 871.076 222.705 871.596 222.705 872.379 222.705 873.379 222.603 874.381 222.496 875.044 222.496 875.554 222.496 875.735 222.496 875.827 222.652 875.827 222.978L875.827 223.084ZM615.802 86.8308 615.802 86.8308C615.802 88.3863 615.366 89.1622 614.498 89.1622 607.518 90.0303 602.834 91.3306 600.45 93.0667 598.069 94.7568 596.871 98.1652 596.871 103.317L596.871 155.468C596.871 170.264 593.296 181.857 586.15 190.243 579.003 198.633 568.906 202.85 555.86 202.903 541.025 202.903 529.453 198.896 521.134 190.881 512.815 182.867 508.655 171.947 508.655 158.118L508.655 103.292C508.655 99.4655 508.212 96.787 507.355 95.1996 506.154 93.3927 504.375 92.0534 502.306 91.3979 498.798 90.2251 495.166 89.474 491.482 89.1622 490.614 89.1622 490.181 88.3863 490.181 86.8308 490.181 85.3108 490.624 84.5314 491.482 84.5314 495.195 84.5314 499.599 84.6943 504.701 85.0238 509.576 85.3534 513.704 85.5163 517.088 85.5163 520.471 85.5163 524.627 85.3534 529.563 85.0238 534.725 84.6943 539.161 84.5314 542.874 84.5314 543.76 84.5314 544.175 85.3108 544.175 86.8308 544.175 88.3544 543.732 89.1622 542.874 89.1622 539.228 89.4882 535.632 90.2322 532.153 91.3731 530.084 92.0109 528.287 93.3253 527.054 95.1075 526.076 96.6948 525.584 99.4018 525.584 103.292L525.584 155.79C525.584 169.428 528.163 179.43 533.322 185.807 538.484 192.185 546.882 195.37 558.514 195.37 580.414 195.37 591.362 181.492 591.355 153.735L591.355 103.292C591.355 98.0873 590.129 94.6894 587.659 92.9462 585.186 91.203 580.541 89.9275 573.724 89.148 572.838 89.148 572.42 88.3685 572.42 86.8202 572.42 85.2719 572.867 84.5172 573.724 84.5172 576.272 84.5172 579.627 84.6802 583.779 85.0097 588.024 85.3498 591.482 85.5057 594.189 85.5057 596.896 85.5057 600.173 85.3356 604.17 85.0097 608.163 84.6873 611.703 84.5172 614.488 84.5172 615.373 84.5172 615.788 85.2967 615.788 86.8202L615.802 86.8308ZM739.563 197.868 739.563 197.868C739.563 199.42 739.127 200.2 738.259 200.2 734.436 200.2 730.099 200.033 725.248 199.703 721.099 199.367 717.574 199.207 714.633 199.207 711.257 199.207 707.072 199.374 702.077 199.703 696.812 200.033 692.322 200.2 688.609 200.2 687.727 200.2 687.309 199.416 687.309 197.868 687.309 196.32 687.646 195.565 688.312 195.565 693.244 195.345 696.794 194.683 698.955 193.602 700.975 192.752 702.264 190.743 702.194 188.553 701.984 186.183 701.421 183.859 700.528 181.655L691.043 153.799 656.824 153.799 647.325 179.575C646.297 182.119 645.677 184.812 645.493 187.551 645.493 192.461 649.982 195.133 658.957 195.565 659.623 195.565 659.945 196.345 659.945 197.868 659.945 199.392 659.506 200.2 658.645 200.2 655.325 200.2 651.637 200.033 647.587 199.703 643.761 199.367 640.352 199.2 637.358 199.207 634.974 199.207 631.99 199.374 628.408 199.703 624.646 200.033 621.428 200.2 618.768 200.2 617.935 200.2 617.467 199.509 617.467 198.116 617.467 196.724 618.105 195.735 619.381 195.618 623.32 195.413 627.122 194.088 630.336 191.792 633.021 189.684 635.803 185.386 638.673 178.898L677.59 83.3586C677.983 82.4516 678.94 81.9166 679.918 82.0583 681.254 82.0583 682.086 82.4905 682.416 83.3586L716.766 178.976C718.701 184.355 721.326 188.319 724.639 190.871 728.533 193.648 733.111 195.321 737.883 195.696 738.989 195.813 739.548 196.554 739.548 197.946L739.563 197.868ZM689.247 148.477 689.247 148.477 674.596 106.01 658.829 148.477 689.247 148.477ZM857.52 169.428 857.52 169.428C855.496 178.293 853.544 187.717 851.652 197.698 845.866 198.021 840.112 198.772 834.436 199.951 823.796 201.918 815.924 202.903 810.822 202.903 798.183 202.903 787.1 200.409 777.566 195.423 768.209 190.605 760.46 183.157 755.28 173.995 749.926 164.57 747.173 153.891 747.304 143.053 747.23 132.144 750.153 121.422 755.758 112.061 761.292 102.669 769.335 95.0119 778.983 89.9417 789.269 84.5774 800.731 81.8599 812.331 82.0441 819.346 82.1787 826.347 82.735 833.292 83.7094 838.224 84.4286 843.195 84.8644 848.176 85.0097 848.896 92.7726 850.171 102.201 852.003 113.284 852.003 114.152 851.135 114.584 849.399 114.584 848.499 114.722 847.638 114.162 847.397 113.284 845.413 105.758 840.856 99.1644 834.514 94.6505 827.931 89.7822 819.924 87.21 811.732 87.341 798.722 87.341 787.791 92.7195 778.944 103.473 770.097 114.23 765.647 127.424 765.597 143.053 765.597 158.182 769.977 171.05 778.739 181.655 787.497 192.263 798.197 197.578 810.836 197.595 830.62 197.595 844.648 188.227 852.914 169.491 853.307 168.62 854.21 168.095 855.163 168.191 856.712 168.191 857.495 168.634 857.495 169.491L857.52 169.428ZM1001.2 197.868 1001.2 197.868C1001.2 199.416 1000.76 200.2 999.899 200.2 996.133 200.2 991.672 200.033 986.51 199.703 981.635 199.374 977.507 199.207 974.123 199.207 970.74 199.207 966.839 199.374 962.413 199.703 957.758 200.033 953.57 200.2 949.856 200.2 948.992 200.2 948.556 199.42 948.556 197.868 948.556 196.479 949.031 195.732 949.977 195.618 953.531 195.314 957.031 194.541 960.383 193.315 962.3 192.678 963.876 191.299 964.769 189.489 965.535 186.92 965.85 184.241 965.705 181.566L965.705 144.484 902.12 144.484 902.12 181.566C901.982 184.245 902.312 186.924 903.098 189.489 903.977 191.299 905.546 192.678 907.456 193.315 910.829 194.545 914.351 195.321 917.93 195.618 918.798 195.732 919.23 196.479 919.23 197.868 919.23 199.42 918.798 200.2 917.93 200.2 914.209 200.2 910.021 200.033 905.373 199.703 900.94 199.367 897.039 199.2 893.663 199.207 890.29 199.218 886.13 199.381 881.188 199.703 876.032 200.033 871.6 200.2 867.89 200.2 867.022 200.2 866.59 199.42 866.59 197.868 866.59 196.479 867.022 195.732 867.89 195.618 874.594 194.846 879.157 193.595 881.577 191.87 883.997 190.144 885.198 186.707 885.181 181.566L885.181 103.292C885.181 99.3876 884.713 96.6948 883.735 95.1075 882.495 93.3218 880.688 92.0002 878.608 91.3589 875.132 90.2216 871.536 89.4775 867.89 89.148 867.022 89.148 866.59 88.3721 866.59 86.8202 866.59 85.2967 867.029 84.5172 867.89 84.5172 871.6 84.5172 876.032 84.6802 881.188 85.0097 886.123 85.3392 890.279 85.5057 893.663 85.5057 897.046 85.5057 900.951 85.3392 905.373 85.0097 910.032 84.6802 914.216 84.5172 917.93 84.5172 918.815 84.5172 919.23 85.2967 919.23 86.8202 919.23 88.3402 918.787 89.148 917.93 89.148 914.595 89.4386 911.304 90.1047 908.119 91.1393 906.237 91.7239 904.6 92.9143 903.459 94.5229 902.563 95.9402 902.159 98.842 902.159 103.278L902.159 139.148 965.616 139.148 965.616 103.306C965.761 100.606 965.443 97.9066 964.677 95.3166 963.827 93.4848 962.268 92.0746 960.358 91.4121 956.967 90.1755 953.428 89.3996 949.832 89.109 948.964 89.109 948.531 88.3331 948.531 86.7812 948.531 85.2577 948.974 84.4782 949.832 84.4782 953.545 84.4782 957.729 84.6412 962.388 84.9707 966.828 85.3002 970.732 85.4667 974.098 85.4667 977.464 85.4667 981.592 85.3002 986.485 84.9707 991.612 84.6589 996.055 84.503 999.821 84.503 1000.7 84.503 1001.12 85.2825 1001.12 86.806 1001.12 88.3296 1000.68 89.1339 999.821 89.1339 996.168 89.4634 992.569 90.2074 989.086 91.3483 987.013 91.9896 985.217 93.3076 983.987 95.0934 983.009 96.67 982.517 99.3876 982.517 103.278L982.517 181.566C982.517 186.718 983.725 190.151 986.145 191.87 988.565 193.588 993.125 194.835 999.821 195.618 1000.7 195.721 1001.12 196.476 1001.12 197.868L1001.2 197.868Z" fill="#4C4B4D" fill-rule="evenodd" transform="matrix(1 0 0 1 115 36.3703)"/><path d="M492.548 350.657 996.307 350.657 996.307 355.132 492.548 355.132Z" fill="#B55C87" fill-rule="evenodd" transform="matrix(1 0 0 1 115 36.3703)"/><path d="M73.2714 0C152.353 0 231.439 0 310.521 0 310.521 28.8586 310.521 57.7172 310.521 86.5757 353.024 120.047 380.147 170.859 380.147 227.754 380.147 328.541 295.055 410.259 190.073 410.259 85.0912 410.259-5.03505e-14 328.541-5.03505e-14 227.754-5.03505e-14 169.247 28.6779 117.17 73.2714 83.7696L73.2714 2.51753e-14Z" fill="#FFFFFF" fill-rule="evenodd" transform="matrix(1 0 0 1 115 36.3703)"/><path d="M47.715 227.754C47.715 152.251 111.434 91.0861 190.073 91.0861 268.709 91.0861 332.478 152.251 332.478 227.754 332.478 303.261 268.709 364.472 190.073 364.472 111.434 364.472 47.715 303.261 47.715 227.754Z" fill="#FFFFFF" fill-rule="evenodd" transform="matrix(1 0 0 1 115 36.3703)"/><path d="M332.478 227.754C332.478 152.261 268.73 91.0613 190.098 91.0613 111.462 91.0613 47.715 152.261 47.715 227.754 47.715 303.247 111.462 364.447 190.098 364.447 268.73 364.447 332.478 303.247 332.478 227.754Z" fill="url(#fill1)" fill-rule="evenodd" transform="matrix(1 0 0 1 115 36.3703)"/><path d="M138.263 355.132C121.954 349.01 107.108 340.085 94.3706 328.974 95.9614 328.502 96.5602 327.985 98.9518 325.767 99.6037 325.165 100.217 324.892 101.067 324.573 101.124 324.548 101.226 324.52 101.294 324.467 103.111 322.369 106.885 322.624 109.609 322.67 110.382 322.681 113.103 322.738 113.783 322.277 114.155 321.785 114.545 320.885 114.91 320.332 115.852 318.901 117.061 317.699 118.556 316.665 119.721 315.854 120.969 315.106 122.216 314.39 123.722 313.533 125.263 312.714 126.818 311.917 127.467 311.581 128.172 311.247 128.831 310.904 129.515 309.965 130.684 309.076 131.605 308.463 132.785 307.687 133.972 306.9 135.262 306.252 136.842 305.458 138.305 305.281 140.091 305.323 140.806 305.338 141.614 305.221 142.38 305.231 144.374 305.26 146.22 305.876 147.025 307.417 147.092 307.432 147.163 307.446 147.219 307.456 149.136 307.835 150.713 307.86 152.215 309.182 153.03 309.894 153.675 310.769 154.447 311.527 154.926 311.821 155.535 312.066 156.045 312.381 156.368 312.587 156.676 312.806 156.952 313.054 160.882 314.688 167.716 318.061 170.264 321.026 172.035 321.965 173.725 323.089 175.532 324.006 178.293 325.413 180.638 325.827 181.641 328.804 181.995 329.856 182.53 329.973 183.508 330.575 184.05 330.908 184.525 331.27 184.932 331.727 186.091 333.006 187.274 335.149 188.805 336.088 191.023 337.445 192.493 338.823 194.045 340.715 195.211 342.133 196.182 343.348 197.691 344.556L200.951 347.175 196.575 347.997C189.209 349.382 181.605 350.491 174.165 351.494 162.313 353.088 150.284 354.367 138.263 355.132Z" fill="#FFFFFF" fill-rule="evenodd" transform="matrix(1 0 0 1 115 36.3703)"/><path d="M133.784 353.361C119.991 347.653 107.324 339.911 96.1953 330.529 97.492 330.008 98.4628 329.211 100.702 327.131 101.552 326.345 102.435 326.557 103.204 325.664 105.078 323.5 112.944 325.873 115.523 323.659 116.348 322.954 116.678 320.569 120.062 318.224 123.892 315.567 130.609 312.399 130.652 312.3 130.9 311.683 132.059 310.723 133.065 310.061 133.791 309.579 135.194 308.636 136.47 307.991 137.72 307.368 138.815 307.311 140.02 307.347 141.207 307.371 144.445 306.709 144.977 308.548 145.118 309.037 145.919 309.274 146.67 309.419 147.79 309.642 149.512 309.71 150.507 310.585 151.128 311.127 151.857 312.094 152.754 312.952 153.175 313.352 154.742 313.841 155.471 314.688 158.898 316.077 166.618 319.779 168.584 322.525 169.619 323.042 172.337 324.74 174.314 325.742 176.96 327.089 178.654 327.276 179.355 329.36 180.163 331.762 181.949 331.737 183.051 332.956 184.27 334.306 185.45 336.524 187.416 337.725 192.022 340.549 192.185 342.916 196.058 346.023 196.058 346.023 166.317 351.618 133.784 353.361Z" fill="#00B5F0" fill-rule="evenodd" transform="matrix(1 0 0 1 115 36.3703)"/><path d="M294.109 321.09C282.417 333.091 268.507 343.072 252.995 350.42L186.013 346.179 191.817 341.587 191.855 341.559C192.628 341.002 193.701 340.297 194.715 340.141 195.558 339.918 196.175 339.479 197.138 339.458 197.358 339.447 197.563 339.436 197.751 339.422 197.996 339.107 198.279 338.823 198.605 338.604 198.821 338.377 199.044 338.193 199.367 338.019 200.2 337.566 200.795 337.314 200.802 337.314L200.848 337.293 208.292 334.108 213.826 331.379 222.068 327.815 226.39 325.76 230.071 323.546 231.662 322.259 233.186 320.644C233.739 319.074 234.029 318.727 235.457 317.412 236.095 316.807 236.75 315.9 237.512 315.432 238.585 314.766 239.645 314.036 240.697 313.334 241.714 312.463 242.664 311.782 243.957 311.194 245.133 310.666 246.076 310.649 247.351 310.649 247.847 310.649 248.347 310.649 248.843 310.649 249.077 310.649 249.36 310.666 249.608 310.663 249.697 310.606 249.789 310.539 249.86 310.482L249.899 310.461 249.934 310.436C250.972 309.742 252.081 309.203 253.445 309.263 254.409 309.302 255.206 309.664 256.138 309.805 257.233 309.983 258.087 310.921 258.753 311.821 259.77 310.911 260.581 310.004 262.296 310.107 263.455 310.177 264.308 310.766 265.332 311.085L265.669 311.184 265.956 311.368C266.112 311.467 266.303 311.588 266.495 311.694 267.724 310.624 268.805 309.937 270.64 309.483L270.948 309.405 271.271 309.405C271.345 309.401 274.775 309.355 275.434 309.355 276.32 309.355 279.207 310.181 279.916 310.603 280.862 311.162 282.247 311.708 282.91 312.569 283.154 312.799 283.516 313.054 283.781 313.249 285.493 314.507 286.828 316.144 288.543 317.405 289.716 318.263 291.023 318.405 292.136 319.609 292.423 319.917 293.312 320.679 293.706 320.881L294.109 321.09Z" fill="#FFFFFF" fill-rule="evenodd" transform="matrix(1 0 0 1 115 36.3703)"/><path d="M292.565 322.653C282.141 333.027 270.027 341.817 256.645 348.627L191.615 344.507 193.397 343.096C193.397 343.096 194.672 342.175 195.147 342.129 195.615 342.08 196.933 341.481 197.191 341.481 197.447 341.481 199.236 341.293 199.236 341.293 199.236 341.293 199.792 340.322 200.09 340.188 200.387 340.046 200.384 339.862 200.642 339.723 200.898 339.585 201.964 339.075 201.964 339.075L209.422 335.886 214.964 333.154 223.187 329.597 227.662 327.468 231.581 325.108 233.413 323.631 235.333 321.597C235.928 319.836 235.981 319.91 237.207 318.777 237.505 318.497 238.614 317.249 238.915 317.065 239.209 316.877 242.281 314.844 242.281 314.844 243.308 313.954 244.021 313.455 245.069 312.98 245.835 312.64 246.515 312.672 247.351 312.672 247.695 312.672 248.418 312.672 248.843 312.672 250.154 312.672 250.334 312.792 251.401 312.023 253.36 310.72 253.527 311.449 255.702 311.79 256.003 311.839 257.367 313.795 257.367 313.795 258.569 314.245 258.558 314.093 259.837 313.699 260.744 313.15 261.353 312.077 262.126 312.123 262.59 312.151 263.951 312.814 264.535 312.987 264.535 312.987 265.559 313.635 265.857 313.682 266.321 313.752 267.377 313.841 267.766 313.483 268.989 312.367 269.744 311.807 271.303 311.425 271.303 311.425 275.221 311.375 275.434 311.375 275.65 311.375 278.166 312.023 278.548 312.254 278.931 312.488 280.809 313.409 280.936 313.689 281 313.827 281.578 314.298 282.226 314.776 283.597 315.783 285.259 317.66 286.991 318.932 288.178 319.801 289.539 320.07 290.265 320.856 290.605 321.225 291.76 322.242 292.483 322.614L292.565 322.653Z" fill="#00B5F0" fill-rule="evenodd" transform="matrix(1 0 0 1 115 36.3703)"/><path d="M223.91 360.575C213.061 363.115 201.734 364.472 190.07 364.472 176.5 364.472 163.369 362.644 150.936 359.239 143.269 355.561 135.871 350.916 127.01 345.832L142.284 338.072 148.775 334.313C152.41 332.148 155.393 330.448 159.918 330.129 160.758 330.072 161.955 329.151 162.579 328.715 163.497 328.077 164.411 327.471 165.484 327.036 166.232 326.727 167.546 325.714 168.202 325.232 171.228 322.996 173.637 323.351 177.208 323.567 178.998 323.677 180.574 324.127 181.967 325.101 182.339 325.36 183.054 326.047 183.426 326.284 183.891 326.224 184.883 325.749 185.287 325.547 188.355 323.687 191.522 322.876 195.193 322.33 202.109 321.296 207.272 322.284 212.646 325.636 213.731 325.023 214.992 324.566 216.19 324.566 216.856 324.566 217.642 324.407 218.312 324.339 219.623 324.208 220.835 324.283 222.064 324.736 223.984 325.441 226.56 326.508 227.974 327.808 229.062 328.804 230.373 329.803 231.542 330.742 232.725 331.695 233.912 332.644 235.099 333.59 236.162 333.927 237.48 334.164 238.547 334.295 245.955 335.202 240.726 334.416 247.443 337.945L254.937 343.525C244.028 350.105 234.454 356.185 223.91 360.575Z" fill="#FFFFFF" fill-rule="evenodd" transform="matrix(1 0 0 1 115 36.3703)"/><path d="M260.372 346.664C239.631 357.992 215.64 364.472 190.07 364.472 165.346 364.472 142.093 358.413 121.833 347.77L143.435 339.851 150.128 335.971C154.16 333.573 156.481 332.396 160.109 332.141 161.626 332.038 162.823 331.156 164.088 330.27 164.846 329.742 165.629 329.215 166.512 328.857 167.33 328.52 168.659 327.571 169.764 326.756 172.223 324.934 174.491 325.427 177.042 325.583 182.647 325.919 180.681 330.281 186.594 327.237 189.549 325.427 192.557 324.771 195.608 324.322 201.815 323.393 206.729 324.056 212.664 328.205 212.664 328.205 214.602 326.589 216.19 326.589 217.773 326.589 219.357 325.941 221.122 326.589 222.882 327.237 225.171 328.205 226.231 329.179 227.287 330.146 233.802 335.326 233.802 335.326 233.802 335.326 235.563 335.971 238.206 336.294 244.024 337.006 253.137 342.636 260.372 346.664Z" fill="#00B5F0" fill-rule="evenodd" transform="matrix(1 0 0 1 115 36.3703)"/><path d="M41.6102 227.754C41.6102 149.044 108.082 85.2223 190.073 85.2223 272.107 85.2223 338.536 149.044 338.536 227.754 338.536 306.514 272.107 370.339 190.073 370.339 108.082 370.339 41.6102 306.514 41.6102 227.754ZM5.56622 227.754C5.56622 129.922 88.1914 50.5743 190.073 50.5743 292.001 50.5743 374.58 129.922 374.58 227.754 374.58 325.586 292.001 404.934 190.073 404.934 88.1914 404.934 5.56622 325.586 5.56622 227.754Z" fill="#8C2889" fill-rule="evenodd" transform="matrix(1 0 0 1 115 36.3703)"/><path d="M304.902 271.519 304.902 5.27922 111.137 5.57684Z" fill="#6EBDE3" fill-rule="evenodd" transform="matrix(1 0 0 1 115 36.3703)"/><path d="M304.902 301.635 78.8341 301.635 78.8341 5.52724 111.137 5.52724 111.137 271.423 304.902 271.423Z" fill="#058943" fill-rule="evenodd" transform="matrix(1 0 0 1 115 36.3703)"/><path d="M366.01 198.58 342.622 203.41 341.289 197.149 351.238 194.832 349.811 188.227 339.716 190.346 338.487 183.891 361.676 178.569 363.204 185.219 352.617 187.834 353.896 194.339 364.876 192.564 366.01 198.58ZM52.4415 156.733 37.029 149.044C37.029 149.044 34.074 148.01 32.4513 151.312 32.4513 151.312 29.9392 154.912 33.8792 156.981L48.6007 164.62 47.0737 167.429 29.9888 158.458C29.9888 158.458 26.1481 155.156 29.0038 148.849 29.0038 148.849 33.1386 140.371 40.2319 143.28L55.694 150.819 52.4415 156.733ZM23.388 288.079 21.3224 282.509 44.2179 274.775 45.8938 280.933 23.388 288.079ZM23.1932 263.288 19.9441 260.528C19.9441 260.528 15.3629 266.739 17.7758 271.717 17.7758 271.717 20.8795 278.073 27.7744 276.447 27.7744 276.447 31.6612 276.103 33.089 269.155 33.089 269.155 33.4363 263.979 36.0936 263.734 36.0936 263.734 38.5561 263.238 39.1974 265.949 39.1974 265.949 38.9989 269.698 36.8837 270.98L39.4914 273C39.4914 273 42.8893 269.648 42.8397 266.052 42.8397 266.052 42.4464 259.348 36.1928 258.31 36.1928 258.31 28.9046 256.638 27.0339 264.67 27.0339 264.67 26.3926 271.618 22.7503 271.175 22.7503 271.175 18.9095 269.648 20.7307 265.903 20.7307 265.903 21.8645 264.227 22.6511 263.734L23.1932 263.288ZM12.95 238.943 36.8341 236.924 38.4072 247.518C38.4072 247.518 38.8041 255.157 34.074 256.684 34.074 256.684 26.6902 257.966 24.8194 252.297L15.6109 259.249 14.7216 251.511 25.6556 244.906C25.6556 244.906 25.854 251.263 31.3175 250.671 31.3175 250.671 36.2424 250.327 34.7153 243.479L12.95 245.693 12.95 238.943ZM15.4621 234.656 12.7056 234.603 13.0493 219.573 37.5215 221.199 36.3877 235.542 33.4363 235.492 33.6807 227.212 26.7859 226.968 26.3465 234.408 23.342 234.259 23.6856 226.72 15.9546 226.277 15.4621 234.656ZM38.6057 197.393 13.4921 205.773 37.2274 217.749 37.3266 214.397 25.854 208.583 38.4072 204.295 38.6057 197.393ZM39.1974 196.756 15.4621 192.415 16.7412 185.765 40.526 190.346 39.1974 196.756ZM41.8051 186.502 18.4171 180.096 19.402 176.053 39.7855 170.338 22.7007 165.162 23.6856 161.81 47.0276 168.907 45.1037 175.416 31.5159 179.653 42.9885 182.955 41.8051 186.502ZM31.81 298.776 47.3217 291.58 48.7992 294.733C48.7992 294.733 50.3262 301.139 44.0691 303.261 44.0691 303.261 36.8341 306.266 33.7799 302.128L31.81 298.776ZM25.4572 294.191 48.0587 284.086 52.7355 294.141C52.7355 294.141 55.4956 305.674 47.467 309.667 47.467 309.667 36.292 314.496 31.3671 305.922L25.4572 294.191ZM52.2962 321.25 49.2421 317.257 57.5152 314.794 52.2962 321.25ZM38.6057 319.673 36.6357 316.371 61.2567 310.9 64.9982 315.779 50.3758 336.627 45.5005 330.267 49.979 323.911 45.6954 317.997 38.6057 319.673ZM60.3709 340.521 72.0915 328.446 73.6151 329.973C73.6151 329.973 78.3451 335.199 73.8135 339.978 73.8135 339.978 67.854 347.274 62.0433 342.097L60.3709 340.521ZM52.8844 338.154 69.4307 321.15 78.54 329.973C78.54 329.973 86.2214 340.322 76.6692 347.125 76.6692 347.125 68.7397 353.974 59.2371 344.709L52.8844 338.154ZM230.351 395.669 224.247 373.245 230.252 371.519 239.216 381.869 240.694 368.515 247.39 366.789 253.743 390.004 247.092 391.481 243.401 377.287 240.694 392.912 230.451 381.426 234.047 394.634 230.351 395.669ZM313.373 354.073 295.254 338.501 305.1 327.113 307.612 329.579 302.294 335.985 307.12 340.078 312.041 334.409 315 336.825 310.17 342.884 315.194 347.274 321.154 340.521 323.567 342.788 313.373 354.073ZM294.219 364.915 284.026 352.004 286.584 349.885C286.584 349.885 291.459 347.617 295.254 351.557 295.254 351.557 300.469 357.474 297.468 362.304L294.219 364.915ZM291.066 371.42 276.49 353.332 286.091 345.793C286.091 345.793 295.055 340.372 302.244 348.06 302.244 348.06 308.597 357.474 300.817 364.079L291.066 371.42ZM258.912 377.287 258.271 368.908 264.181 374.775 258.912 377.287ZM256.4 388.622 254.629 364.079 260.439 361.467 278.708 379.307 271.618 382.51 266.743 377.333 259.355 380.884 260.046 387.194 256.4 388.622ZM96.9074 360.677 92.1313 357.574 99.3699 352.103 96.9074 360.677ZM83.9574 364.029 80.6587 361.319 101.634 347.075 107.002 350.523 100.206 375.215 93.9029 370.878 95.724 364.029 89.4208 359.543 83.9574 364.029ZM114.145 355.749 107.101 369.698C107.101 369.698 103.409 377.879 111.285 381.773 111.285 381.773 119.806 386.896 125.072 377.333L131.474 364.522 128.324 362.994 121.727 376.402C121.727 376.402 118.329 381.575 114.339 379.013 114.339 379.013 111.041 376.203 113.748 370.928L120.001 358.608 114.145 355.749ZM130.981 389.508 137.728 370.24 131.871 368.167 133.199 365.014 151.861 371.618 150.628 374.577 144.378 372.508 137.777 391.825 130.981 389.508ZM149.005 381.674C150.876 375.169 157.721 371.42 164.319 373.294 170.87 375.169 174.71 381.968 172.84 388.523 170.965 395.031 164.124 398.826 157.523 396.952 150.975 395.031 147.134 388.228 149.005 381.674ZM155.751 383.693C157.229 378.566 160.821 375.119 163.776 375.955 166.731 376.795 167.911 381.624 166.437 386.751 164.96 391.874 161.413 395.375 158.458 394.535 155.507 393.649 154.274 388.82 155.751 383.693ZM175.94 399.12 175.94 375.611 183.572 375.76 191.646 387.095 191.646 375.512 195.044 375.512 195.044 398.185 191.352 398.185 179.338 382.166 179.338 399.07 175.94 399.12ZM199.874 389.904C198.098 383.35 202.038 376.596 208.636 374.821 215.233 373.05 222.029 376.94 223.754 383.495 225.526 390.053 221.586 396.803 214.988 398.578 208.391 400.353 201.595 396.459 199.874 389.904ZM206.669 388.129C205.287 383.002 206.566 378.173 209.521 377.387 212.526 376.596 216.023 380.147 217.401 385.27 218.78 390.446 217.5 395.226 214.546 396.016 211.591 396.852 208.048 393.306 206.669 388.129ZM330.313 305.972C330.313 305.972 322.139 306.464 321.99 312.477 321.99 312.477 321.643 316.42 327.06 319.723 327.06 319.723 335.238 324.01 338.388 320.608 338.388 320.608 342.278 316.024 338.731 310.9L342.427 309.915C342.427 309.915 345.134 317.947 340.064 323.418 340.064 323.418 334.104 331.797 323.517 326.128 323.517 326.128 314.851 318.833 319.428 309.717 319.428 309.717 322.04 302.964 330.114 303.113L330.313 305.972ZM345.378 245.597 345.676 239.043 363.257 239.634C363.257 239.634 366.406 239.237 366.357 235.443 366.357 235.443 366.555 231.549 362.417 231.056L345.775 230.22 345.97 226.72 363.452 228.048C363.452 228.048 371.083 228.544 370.297 237.462 370.297 237.462 370.297 245.842 363.65 246.04L345.378 245.597ZM363.894 273.099 340.503 267.873 341.984 261.169 351.338 263.093 352.223 256.39 343.461 254.42 344.496 248.503 368.033 253.63 366.75 259.15 356.461 257.13 355.522 264.029 365.223 266.296 363.894 273.099ZM359.363 284.628 336.418 277.188 338.731 270.927 361.825 278.222 359.363 284.628ZM348.826 308.533 327.408 297.493 330.214 291.58 338.93 296.016 342.03 290.003 333.463 285.418 336.223 279.306 357.985 290.201 355.083 296.214 345.676 291.629 342.622 297.84 351.781 302.67 348.826 308.533ZM339.323 151.953 331.099 153.827 337.452 147.173 339.323 151.953ZM352.124 153.087 327.602 157.92 323.861 151.117 341.045 132.583 344.347 139.386 339.472 144.513 343.114 151.804 350.746 150.029 352.124 153.087ZM358.775 219.573 350.402 218.539 358.626 214.446 358.775 219.573ZM370.446 225.044 345.725 221.15 344.542 213.511 366.998 201.978 367.834 209.472 361.482 212.675 362.417 220.757 370.198 221.692 370.446 225.044ZM337.208 181.131 335.238 174.576 349.761 169.846C349.761 169.846 354.541 168.071 353.159 163.585 353.159 163.585 352.571 160.577 347.94 161.317L332.329 166.689 331.099 163.188 347.547 157.771C347.547 157.771 356.114 155.454 357.69 164.719 357.69 164.719 359.955 173.934 351.387 176.447L337.208 181.131Z" fill="#FAED38" fill-rule="evenodd" transform="matrix(1 0 0 1 115 36.3703)"/><path d="M85.8777 30.3644 85.8777 20.263 101.092 20.263 101.092 24.3553 87.8973 24.3553 87.8973 30.3644 85.8777 30.3644ZM288.061 293.55 288.061 279.306 296.04 279.306C296.04 279.306 301.259 280.047 300.622 284.532 300.622 284.532 300.225 287.193 297.174 287.835L300.817 293.55 295.792 293.55 292.692 287.094C292.692 287.094 292.494 286.453 292.887 286.453L294.12 286.453C294.12 286.453 296.285 286.06 296.186 283.891 296.186 283.891 296.235 281.329 293.872 281.181L292.2 281.181 292.2 293.55 288.061 293.55ZM85.8777 192.961 85.8777 182.856 101.092 182.806 101.092 186.948 87.8973 186.948 87.8973 192.911 85.8777 192.961ZM93.46 193.896C97.694 193.896 101.092 197.298 101.092 201.535 101.092 205.773 97.694 209.224 93.46 209.224 89.2756 209.224 85.8777 205.773 85.8777 201.535 85.8777 197.298 89.2756 193.896 93.46 193.896ZM93.4104 198.233C96.709 198.233 99.4195 199.76 99.4195 201.684 99.4195 203.604 96.709 205.132 93.4104 205.132 90.1118 205.132 87.4544 203.604 87.4544 201.684 87.4544 199.76 90.1118 198.233 93.4104 198.233ZM92.3793 226.62 92.3793 222.975 88.9815 222.975C88.9815 222.975 87.0576 222.284 87.3552 219.474 87.3552 219.474 88.0426 215.336 92.3793 215.286 92.3793 215.286 98.3353 215.088 98.9766 218.638 98.9766 218.638 99.7632 221.547 96.3157 223.467L97.8428 225.784C97.8428 225.784 101.389 224.108 101.042 218.932 101.042 218.932 100.947 211.835 93.708 211.392 93.708 211.392 85.977 211.686 85.9273 218.39 85.9273 218.39 85.2364 223.86 88.1418 226.422L88.3402 226.571 92.3793 226.62ZM85.8281 229.086 101.092 229.086 101.092 237.069C101.092 237.069 100.305 242.295 95.4796 241.604 95.4796 241.604 92.6734 241.211 91.9825 238.203L85.8281 241.799 85.8281 236.775 92.7726 233.668C92.7726 233.668 93.46 233.522 93.46 233.916L93.46 235.149C93.46 235.149 93.8533 237.317 96.1705 237.218 96.1705 237.218 98.9766 237.218 99.1219 234.901L99.1219 233.175 85.8281 233.175 85.8281 229.086ZM91.9329 250.179 91.9329 246.384 97.0066 248.159 91.9329 250.179ZM85.8777 242.345 101.092 247.174 101.092 251.263 85.8777 257.523 85.8777 252.496 90.211 250.721 90.211 245.891 85.8777 244.464 85.8777 242.345ZM85.8281 259.05 101.092 259.05 101.092 266.987C101.092 266.987 100.305 272.21 95.4796 271.568 95.4796 271.568 92.6734 271.175 91.9825 268.121L85.8281 271.767 85.8281 266.739 92.7726 263.635C92.7726 263.635 93.46 263.486 93.46 263.83L93.46 265.063C93.46 265.063 93.8533 267.231 96.1705 267.136 96.1705 267.136 98.9766 267.182 99.1219 264.819L99.1219 263.143 85.8281 263.143 85.8281 259.05ZM106.36 293.55 96.2697 293.55 96.2697 279.306 100.355 279.306 100.355 291.53 106.36 291.53 106.36 293.55ZM107.445 286.453C107.445 282.509 110.644 279.306 114.584 279.306 118.574 279.306 121.776 282.509 121.776 286.453 121.776 290.396 118.574 293.55 114.584 293.55 110.644 293.55 107.445 290.396 107.445 286.453ZM111.533 286.502C111.533 283.399 112.961 280.883 114.733 280.883 116.504 280.883 117.932 283.399 117.932 286.502 117.932 289.557 116.504 292.072 114.733 292.072 112.961 292.072 111.533 289.557 111.533 286.502ZM138.663 287.491 135.219 287.491 135.219 290.694C135.219 290.694 134.578 292.515 131.966 292.221 131.966 292.221 128.076 291.58 127.98 287.491 127.98 287.491 127.832 281.921 131.13 281.28 131.13 281.28 133.887 280.539 135.708 283.792L137.876 282.364C137.876 282.364 136.3 279.012 131.424 279.306 131.424 279.306 124.777 279.455 124.335 286.254 124.335 286.254 124.629 293.55 130.932 293.55 130.932 293.55 136.055 294.241 138.468 291.48L138.617 291.332 138.663 287.491ZM141.717 293.55 141.717 279.306 149.696 279.306C149.696 279.306 154.912 280.047 154.274 284.532 154.274 284.532 153.881 287.193 150.826 287.835L154.472 293.55 149.448 293.55 146.344 287.094C146.344 287.094 146.149 286.453 146.543 286.453L147.772 286.453C147.772 286.453 149.941 286.06 149.841 283.891 149.841 283.891 149.841 281.329 147.528 281.181L145.852 281.181 145.852 293.55 141.717 293.55ZM162.448 287.884 158.905 287.884 160.527 283.101 162.448 287.884ZM155.11 293.55 159.642 279.306 163.433 279.306 169.289 293.55 164.567 293.55 162.94 289.511 158.412 289.511 157.08 293.55 155.11 293.55ZM171.309 293.55 171.309 279.306 179.288 279.306C179.288 279.306 184.507 280.047 183.82 284.532 183.82 284.532 183.423 287.193 180.422 287.835L184.015 293.55 178.994 293.55 175.89 287.094C175.89 287.094 175.741 286.453 176.138 286.453L177.368 286.453C177.368 286.453 179.533 286.06 179.437 283.891 179.437 283.891 179.437 281.329 177.123 281.181L175.398 281.181 175.398 293.55 171.309 293.55ZM196.373 285.911 196.373 281.429 197.854 281.429C197.854 281.429 200.462 281.723 200.313 283.891 200.313 283.891 199.969 285.911 198.346 285.911L196.373 285.911ZM192.337 293.55 192.337 279.306 199.477 279.306C199.477 279.306 204.993 280.539 204.352 284.628 204.352 284.628 203.711 288.129 199.771 287.93L196.476 287.93 196.476 293.55 192.337 293.55ZM212.182 287.884 208.636 287.884 210.262 283.101 212.182 287.884ZM204.845 293.55 209.373 279.306 213.217 279.306 219.028 293.55 214.347 293.55 212.675 289.511 208.143 289.511 206.864 293.55 204.845 293.55ZM220.7 293.55 220.7 279.306 228.679 279.306C228.679 279.306 233.898 280.047 233.257 284.532 233.257 284.532 232.863 287.193 229.813 287.835L233.455 293.55 228.431 293.55 225.331 287.094C225.331 287.094 225.132 286.453 225.526 286.453L226.759 286.453C226.759 286.453 228.923 286.06 228.824 283.891 228.824 283.891 228.824 281.329 226.511 281.181L224.835 281.181 224.835 293.55 220.7 293.55ZM241.629 287.884 238.033 287.884 239.709 283.101 241.629 287.884ZM234.242 293.55 238.773 279.306 242.614 279.306 248.425 293.55 243.744 293.55 242.072 289.511 237.54 289.511 236.261 293.55 234.242 293.55ZM260.733 291.332 260.733 281.376 262.803 281.376C262.803 281.376 266.743 282.364 266.395 286.75 266.395 286.75 265.952 291.431 262.997 291.381L260.733 291.332ZM256.744 293.55 256.744 279.306 263.589 279.306C263.589 279.306 271.32 280.245 270.682 287.045 270.682 287.045 269.793 293.305 264.082 293.55L256.744 293.55ZM279.742 287.884 276.196 287.884 277.822 283.101 279.742 287.884ZM272.404 293.55 276.936 279.306 280.727 279.306 286.584 293.55 281.857 293.55 280.235 289.511 275.703 289.511 274.374 293.55 272.404 293.55ZM91.0578 58.8049 90.0232 60.4808C90.0232 60.4808 86.3277 58.5569 86.2781 54.911 86.2781 54.911 85.3923 48.0091 90.7601 46.2871 90.7601 46.2871 96.67 44.3136 100.018 48.5511 100.018 48.5511 101.691 50.5247 101.496 54.0713 101.496 54.0713 101.889 58.4116 98.64 60.3816L97.1129 58.5108C97.1129 58.5108 100.606 56.5373 100.117 54.0217 100.117 54.0217 100.018 50.5247 94.7993 50.3758 94.7993 50.3758 87.6564 50.0322 88.0036 54.9606 88.0036 54.9606 88.5457 57.0794 90.5653 58.3585L91.0578 58.8049ZM94.0517 120.313 98.8278 120.313 98.8774 121.84C98.8774 121.84 98.4806 124.452 96.1705 124.306 96.1705 124.306 94.0517 123.909 94.0517 122.333L94.0517 120.313ZM85.8777 116.27 101.092 116.27 101.092 123.467C101.092 123.467 99.8128 128.987 95.4299 128.395 95.4299 128.395 91.6884 127.754 91.8868 123.764L91.8868 120.412 85.8777 120.412 85.8777 116.27ZM85.8281 94.6328 101.092 94.6328 101.092 102.569C101.092 102.569 100.305 107.795 95.4796 107.154 95.4796 107.154 92.6734 106.757 91.9825 103.703L85.8281 107.349 85.8281 102.325 92.7726 99.2175C92.7726 99.2175 93.46 99.0723 93.46 99.4655L93.46 100.699C93.46 100.699 93.8533 102.867 96.1705 102.768 96.1705 102.768 98.9766 102.768 99.1219 100.401L99.1219 98.725 85.8281 98.725 85.8281 94.6328ZM85.8281 145.25 101.092 145.25 101.092 153.236C101.092 153.236 100.305 158.458 95.4796 157.817 95.4796 157.817 92.6734 157.424 91.9825 154.366L85.8281 158.015 85.8281 152.988 92.7726 149.884C92.7726 149.884 93.46 149.686 93.46 150.082L93.46 151.312C93.46 151.312 93.8533 153.48 96.1705 153.384 96.1705 153.384 98.9766 153.431 99.1219 151.067L99.1219 149.391 85.8281 149.391 85.8281 145.25ZM91.9329 85.4667 91.9329 81.6721 97.0066 83.3976 91.9329 85.4667ZM85.8777 77.5798 101.092 82.4622 101.092 86.5509 85.8777 92.762 85.8777 87.7343 90.211 85.9592 90.211 81.13 85.8777 79.7517 85.8777 77.5798ZM91.9329 136.576 91.9329 132.732 97.0066 134.507 91.9329 136.576ZM85.8777 128.689 101.092 133.571 101.092 137.66 85.8777 143.871 85.8777 138.844 90.211 137.068 90.211 132.239 85.8777 130.861 85.8777 128.689ZM91.9329 166.986 91.9329 163.142 97.0066 164.914 91.9329 166.986ZM85.8777 159.1 101.092 163.978 101.092 168.071 85.8777 174.278 85.8777 169.251 90.211 167.479 90.211 162.65 85.8777 161.268 85.8777 159.1ZM101.092 75.8082 85.8777 75.8082 85.8777 71.6664 92.6238 71.6664 92.6238 67.28 85.8777 67.28 85.8777 63.092 101.092 63.092 101.092 67.3296 94.739 67.3296 94.739 71.6664 101.092 71.6664 101.092 75.8082ZM101.092 43.4278 89.2756 43.4278C89.2756 43.4278 86.0762 42.8822 85.8777 39.4843L85.8777 35.9838C85.8777 35.9838 86.3702 32.1395 89.9629 31.6505L101.092 31.6505 101.092 35.7889 90.211 35.7889C90.211 35.7889 88.0426 36.1822 88.0426 38.6446 88.0426 38.6446 88.1914 41.1602 91.0011 41.3586L101.092 41.2559 101.092 43.4278Z" fill="#FFFFFF" fill-rule="evenodd" transform="matrix(1 0 0 1 115 36.3703)"/><path d="M304.902 271.519 110.892 271.373 111.137 5.57684Z" fill="#23945D" fill-rule="evenodd" transform="matrix(1 0 0 1 115 36.3703)"/><path d="M119.31 109.273 147.627 178.47 156.244 161.711 172.641 217.157 184.263 202.028 197.209 247.224 204.845 233.572 223.899 256.489 207.846 201.386 202.382 218.833 185.935 164.375 177.467 178.813 165.746 125.734 151.468 148.307 137.04 95.6709Z" fill="#FAED38" fill-rule="evenodd" transform="matrix(1 0 0 1 115 36.3703)"/><path d="M158.685 70.7522 175.196 93.1836 300.115 8.01096 184.181 105.397 204.93 133.586 300.646 10.6683 214.592 146.709 235.779 175.497 304.898 4.82216Z" fill="#FFFFFF" fill-rule="evenodd" transform="matrix(1 0 0 1 115 36.3703)"/><path d="M1115.15 404.934 1115.15 5.42803 1119.62 5.42803 1119.62 404.934Z" fill="#4C4B4D" fill-rule="evenodd" transform="matrix(1 0 0 1 115 36.3703)"/></g></svg>